<svg width="317" height="135" viewBox="0 0 317 135" fill="none" xmlns="http://www.w3.org/2000/svg">
<path d="M93.7301 61.9633C93.208 49.2497 88.3001 36.9052 80.3639 28.2517C75.5257 22.9612 69.3995 19.0241 62.8209 18.2859C56.2423 17.5477 49.2111 20.4185 45.2082 26.6113C41.7275 31.9428 40.7877 38.9968 40.718 45.7227C40.6136 59.5026 43.99 73.6516 51.578 84.1096C57.3909 92.1068 65.884 97.6844 74.8643 98.6687C78.6584 99.0788 81.7562 99.2019 84.2972 95.6749C87.3255 91.4507 89.6576 86.2012 91.2587 81.0337C93.1383 74.923 93.9737 68.4021 93.7301 61.9633Z" fill="#FF39AA"/>
<path d="M239.156 11.1909C247.301 14.8819 253.219 23.6994 255.899 33.5012C258.579 43.262 258.266 53.884 256.699 63.9728C255.133 73.9797 252.174 83.9865 246.466 91.6147C240.758 99.2428 231.916 104.123 223.423 102.278C214.582 100.35 207.69 91.4916 204.558 81.5258C201.46 71.56 201.564 60.6509 202.399 50.1109C202.922 43.59 203.687 37.0282 205.706 30.9175C210.544 16.3583 226.034 5.3262 239.156 11.2319V11.1909Z" fill="#5845AC"/>
<path d="M277.375 50.1109C271.493 53.1048 266.933 60.5689 267.977 68.033C268.708 73.3235 272.05 77.7527 276.087 80.1724C280.125 82.5921 284.789 83.2893 289.314 83.2073C294.292 83.1253 299.443 82.141 303.551 78.819C307.658 75.4971 310.408 69.3864 309.259 63.6858C306.3 49.2087 287.156 45.0665 277.375 50.1109Z" fill="#FF39AA"/>
<path d="M162.58 69.8784C153.495 72.5032 145.211 80.0083 141.869 90.3022C139.502 97.6023 140.024 106.748 144.863 112.079C148.9 116.509 154.852 117.37 160.352 117.37C167.244 117.37 174.24 116.427 180.54 113.146C186.841 109.865 192.41 104.082 194.951 96.536C197.457 89.0309 196.9 76.9734 190.008 73.0363C182.072 68.484 171.003 67.4177 162.545 69.8374L162.58 69.8784Z" fill="#43395E"/>
<path d="M8.06852 75.8252C7.09391 80.5826 7.79006 85.9551 10.5051 89.6871C13.22 93.3782 18.0931 94.9776 21.7479 92.64C24.1845 91.1225 25.7508 88.2107 26.8298 85.2169C28.6398 80.1314 29.1619 74.1027 27.1083 69.1403C25.2635 64.7111 19.7987 60.2818 15.4825 62.4144C11.7929 64.2189 8.93871 71.601 8.06852 75.7842V75.8252Z" fill="#5845AC"/>
<path d="M302.228 208.99C301.218 197.302 296.171 176.304 288.27 152.517C295.371 140.624 298.991 125.572 299.304 110.849C299.791 89.277 294.152 68.1561 287.748 47.9373C285.833 41.9086 282.248 28.9489 275.53 28.5388C273.094 28.4158 270.518 30.5484 270.344 33.4192C270.24 34.9776 270.797 36.9462 271.527 38.9968C272.711 42.1957 274.451 45.5997 275.217 47.9373C277.097 53.5969 278.733 59.3386 280.125 65.2032C282.805 76.3994 284.615 87.9237 285.485 99.5299C286.251 109.865 286.251 120.651 282.631 130.125C282.248 131.15 281.796 132.175 281.308 133.159C259.345 75.169 223.11 11.2319 186.318 24.2326C178.278 27.0624 172.569 35.9209 169.785 45.2306C167 54.5402 166.965 64.7111 167.94 74.5129C170.725 102.565 181.898 129.386 199.023 149.154C209.117 160.842 221.439 170.193 235.188 174.089C247.162 177.493 260.25 176.386 271.249 169.988C275.635 192.831 276.888 218.915 274.834 241.717C272.607 266.734 261.538 294.663 240.932 301.307C207.586 312.052 182.524 288.552 175.458 283.918C187.154 205.217 163.206 123.727 147.821 88.99C141.451 74.6359 134.002 60.6099 123.665 49.9059C113.327 39.2429 99.6822 32.1889 85.968 33.6243C62.5772 36.085 45.2082 63.1526 42.4236 90.6304C39.639 118.108 47.7492 145.709 58.7832 170.111C87.1166 232.982 115.728 276.823 142.948 305.531C135.812 312.995 129.269 319.762 119.592 323.166C108.036 327.267 94.7743 325.709 84.9585 317.425C76.7788 310.494 71.662 299.708 67.0674 289.127C53.0399 256.81 41.5534 223.016 32.7471 188.279C28.3265 170.89 18.5108 114.704 14.6123 87.5956C14.0206 83.6174 8.76463 82.3871 5.49271 83.7405C2.98657 84.7658 1.28099 87.6366 0.55003 90.6714C-0.18093 93.7063 -0.0417004 96.8642 0.167145 100.022C0.480414 105.108 0.584837 109.947 1.03734 114.991C4.62252 154.896 13.9858 193.529 24.4629 231.546C32.7471 261.649 37.9682 293.925 54.0494 319.311C68.1116 341.54 90.7714 356.796 114.301 356.714C134.072 356.632 153.843 344.861 164.946 325.873C252.522 394.896 319.249 308.156 302.228 209.031V208.99ZM79.4937 153.583C71.5924 131.273 66.8238 105.887 69.0166 81.7309C69.504 76.2764 71.0703 70.7808 74.2378 66.7617C79.8766 59.5026 89.588 58.3953 97.5241 61.4301C127.424 72.8724 136.091 113.597 143.575 145.135C152.451 182.619 158.611 228.142 154.817 267.021C146.986 258.573 105.739 227.814 79.4937 153.542V153.583ZM211.484 133.324C201.738 121.512 195.16 106.502 190.078 91.1636C187.537 83.4534 185.309 75.2101 186.214 66.9667C187.154 58.7644 192.096 50.6031 199.093 49.4548C206.054 48.3064 212.354 54.0481 217.402 59.7897C236.72 81.6899 256.56 118.518 266.306 149.195C260.807 152.353 254.611 153.993 248.52 153.87C234.527 153.624 221.265 145.176 211.484 133.324Z" fill="#FFB900"/>
<path d="M34.2091 129.345C36.1891 129.345 37.7943 127.454 37.7943 125.121C37.7943 122.788 36.1891 120.897 34.2091 120.897C32.229 120.897 30.6239 122.788 30.6239 125.121C30.6239 127.454 32.229 129.345 34.2091 129.345Z" fill="#5845AC"/>
<path d="M266.306 97.9305C268.286 97.9305 269.892 96.0392 269.892 93.7063C269.892 91.3733 268.286 89.4821 266.306 89.4821C264.326 89.4821 262.721 91.3733 262.721 93.7063C262.721 96.0392 264.326 97.9305 266.306 97.9305Z" fill="#FF39AA"/>
<path d="M164.39 139.598C166.37 139.598 167.975 137.707 167.975 135.374C167.975 133.041 166.37 131.15 164.39 131.15C162.41 131.15 160.804 133.041 160.804 135.374C160.804 137.707 162.41 139.598 164.39 139.598Z" fill="#FF39AA"/>
<path d="M172.674 42.9749C174.654 42.9749 176.259 41.0836 176.259 38.7507C176.259 36.4177 174.654 34.5265 172.674 34.5265C170.694 34.5265 169.089 36.4177 169.089 38.7507C169.089 41.0836 170.694 42.9749 172.674 42.9749Z" fill="#FF39AA"/>
<path d="M70.7917 119.052C72.7718 119.052 74.3769 117.16 74.3769 114.827C74.3769 112.494 72.7718 110.603 70.7917 110.603C68.8117 110.603 67.2065 112.494 67.2065 114.827C67.2065 117.16 68.8117 119.052 70.7917 119.052Z" fill="#FF39AA"/>
<path d="M105.356 18.86C107.336 18.86 108.941 16.9688 108.941 14.6358C108.941 12.3029 107.336 10.4116 105.356 10.4116C103.376 10.4116 101.771 12.3029 101.771 14.6358C101.771 16.9688 103.376 18.86 105.356 18.86Z" fill="#43395E"/>
<path d="M188.824 9.34537C190.804 9.34537 192.41 7.45413 192.41 5.12117C192.41 2.78821 190.804 0.896973 188.824 0.896973C186.844 0.896973 185.239 2.78821 185.239 5.12117C185.239 7.45413 186.844 9.34537 188.824 9.34537Z" fill="#FFB900"/>
<path d="M18.0582 33.4192C20.0383 33.4192 21.6434 31.528 21.6434 29.195C21.6434 26.8621 20.0383 24.9708 18.0582 24.9708C16.0782 24.9708 14.473 26.8621 14.473 29.195C14.473 31.528 16.0782 33.4192 18.0582 33.4192Z" fill="#43395E"/>
<path d="M304.908 38.7506C306.888 38.7506 308.493 36.8594 308.493 34.5264C308.493 32.1935 306.888 30.3022 304.908 30.3022C302.928 30.3022 301.323 32.1935 301.323 34.5264C301.323 36.8594 302.928 38.7506 304.908 38.7506Z" fill="#5845AC"/>
<path d="M259.345 9.34537C261.325 9.34537 262.93 7.45413 262.93 5.12117C262.93 2.78821 261.325 0.896973 259.345 0.896973C257.365 0.896973 255.76 2.78821 255.76 5.12117C255.76 7.45413 257.365 9.34537 259.345 9.34537Z" fill="#43395E"/>
<path d="M91.8852 103.016C89.5531 109.496 91.0499 117.657 95.5052 122.414C99.9258 127.172 106.957 128.197 112.213 124.875C117.504 121.553 120.636 114.089 119.731 107.117C117.504 90.0151 97.5937 87.1033 91.8852 103.057V103.016Z" fill="#5845AC"/>
<path d="M191.853 147.021C191.748 158.259 199.406 168.881 208.839 170.521C211.693 171.013 214.687 170.767 217.228 169.086C221.022 166.625 222.971 161.54 224.154 156.618C225.755 149.892 226.347 142.592 224.293 136.03C221.439 127.049 213.12 120.815 205.358 124.834C197.805 128.73 191.922 136.974 191.853 147.021Z" fill="#FF39AA"/>
<path d="M236.407 126.229C239.579 126.229 242.15 123.199 242.15 119.462C242.15 115.724 239.579 112.695 236.407 112.695C233.235 112.695 230.663 115.724 230.663 119.462C230.663 123.199 233.235 126.229 236.407 126.229Z" fill="#FF39AA"/>
<path d="M311.243 135.374C314.415 135.374 316.986 132.345 316.986 128.607C316.986 124.87 314.415 121.84 311.243 121.84C308.071 121.84 305.5 124.87 305.5 128.607C305.5 132.345 308.071 135.374 311.243 135.374Z" fill="#FF39AA"/>
<path d="M126.867 21.7309C126.658 26.7343 128.607 31.4917 130.939 35.6338C133.167 39.612 135.778 43.303 138.736 46.5429C140.755 48.7576 143.192 50.9312 145.976 50.8081C149.353 50.6851 151.963 47.2401 153.46 43.6721C157.602 34.0754 156.801 17.2606 148.9 10.1656C140.825 2.90657 127.319 9.59146 126.867 21.7309Z" fill="#5845AC"/>
</svg>
