<svg width="317" height="135" viewBox="0 0 317 135" fill="none" xmlns="http://www.w3.org/2000/svg">
<path d="M97.9493 30.026C88.3465 21.8131 74.5269 19.8027 64.8177 27.8445C59.538 32.2076 55.959 38.9233 51.6714 44.6552C46.3208 51.7987 39.6236 57.9156 36.6116 66.8557C33.1036 77.2502 35.4777 89.3984 40.1197 99.1512C47.2775 114.337 59.786 125.758 73.8536 129.95C82.0745 132.388 91.1458 132.345 98.6226 127.469C106.843 122.122 112.052 111.599 114.356 100.691C119.706 75.4536 116.801 46.1096 98.0202 30.026H97.9493Z" fill="#FF5826"/>
<path d="M130.691 116.048C124.844 116.048 118.927 114.508 113.47 112.839C108.19 111.257 102.733 109.246 99.6148 103.814C97.5241 100.178 96.9926 95.9003 96.4965 91.7511C96.1776 89.2701 95.8941 86.8747 95.2917 84.6931C94.1578 80.5011 91.9254 76.9508 89.5513 73.2293C87.8504 70.5344 86.0787 67.754 84.7321 64.6314C81.1532 56.3758 80.7989 46.3235 83.8463 37.7256C86.8582 29.1278 93.0948 22.4548 100.536 19.8455C112.407 15.6535 123.852 21.8131 135.546 28.9994C136.75 29.7266 137.92 30.4538 139.089 31.1382C146.424 35.5013 153.369 39.6078 157.586 50.045C160.988 58.4717 162.086 68.7806 160.704 79.8595C158.755 95.9003 151.846 108.434 142.207 113.395C138.522 115.278 134.589 116.005 130.656 116.005L130.691 116.048ZM101.387 23.182C94.7602 25.4918 89.1969 31.4804 86.5039 39.1372C83.8108 46.794 84.0943 55.7769 87.3189 63.1343C88.5591 65.9575 90.2245 68.6523 91.8545 71.2616C94.2641 75.0686 96.7445 79.004 98.0202 83.7093C98.6935 86.1903 99.0124 88.8424 99.3313 91.3661C99.7919 95.3015 100.253 99.0229 101.953 101.974C104.54 106.423 109.395 108.22 114.178 109.631C123.25 112.369 132.817 114.679 141.18 110.401C149.897 105.953 156.169 94.3604 157.976 79.5173C158.862 72.2455 159.074 61.5516 155.106 51.6704C151.314 42.2598 145.113 38.5811 137.92 34.3464C136.75 33.662 135.546 32.9348 134.341 32.2076C123.214 25.3207 112.3 19.4605 101.422 23.2675L101.387 23.182Z" fill="#215028"/>
<path d="M262.934 32.1648C259.638 37.3834 257.016 43.7142 257.548 50.2589C258.044 56.3758 261.375 61.851 265.698 65.102C270.021 68.3529 275.265 69.465 280.368 69.2512C288.553 68.909 296.739 64.9309 302.231 57.5735C312.33 44.0136 309.743 24.1658 296.739 15.1402C284.159 6.41397 270.481 20.1877 262.934 32.1648Z" fill="#FFA326"/>
<path d="M315.519 64.161C312.259 47.4785 302.196 32.0794 288.482 27.759C274.805 23.4815 255.351 18.5623 220.27 58.814C215.487 64.2893 211.518 70.7912 208.152 77.6353C197.167 100.178 194.261 128.281 200.356 153.391C202.057 160.406 204.644 167.549 209.569 171.87C214.211 175.976 220.235 176.917 225.975 177.131C237.917 177.602 249.894 175.506 261.446 171.741C271.048 168.619 280.58 164.213 288.447 156.855C299.68 146.375 306.802 130.677 311.515 114.551C316.228 98.3814 318.815 80.7579 315.519 64.1182V64.161ZM296.597 99.2797C292.557 121.266 280.084 140.772 263.501 151.081C256.662 155.358 248.937 158.139 241.248 157.155C228.527 155.572 217.648 143.296 213.75 128.624C209.853 113.909 212.333 97.3975 218.676 84.0088C224.168 72.3739 232.389 62.8349 241.496 55.3065C249.965 48.2913 264.422 49.0185 274.06 52.0127C283.096 54.8359 291.565 61.8083 295.392 72.0744C298.546 80.5012 298.298 90.254 296.632 99.2797H296.597Z" fill="#215028"/>
<path d="M181.717 30.7105C175.268 37.9395 171.016 48.7617 172.61 59.199C174.17 69.6789 182.674 78.619 191.356 76.9936C196.494 76.0097 200.781 71.8605 204.502 67.4546C209.463 61.5516 213.857 55.007 217.613 47.949C220.377 42.7304 222.857 36.8274 222.396 30.6677C220.483 3.89023 190.434 20.9577 181.717 30.6677V30.7105Z" fill="#FF5826"/>
<path d="M188.096 158.353C193.127 158.566 198.053 156.727 202.872 154.931C214.884 150.439 226.932 145.948 238.945 141.456C240.858 140.729 242.807 140.002 244.543 138.847C241.319 124.56 236.854 110.701 231.255 97.5686C228.704 98.5524 226.153 99.8785 224.275 100.606C211.589 105.354 199.01 111 187.67 119.47C183.206 122.806 178.812 126.741 176.083 132.174C173.319 137.606 172.504 144.836 175.197 150.268C177.784 155.487 183.028 158.096 188.06 158.31L188.096 158.353Z" fill="#FF5826"/>
<path d="M247.094 91.0666C252.374 89.1417 257.725 87.2596 263.253 86.7891C268.781 86.3185 274.556 87.5163 279.057 91.3661C283.592 95.1731 286.604 101.974 285.718 108.562C284.691 115.962 279.269 121.309 273.635 124.56C268.036 127.811 261.835 129.693 256.697 133.928C252.906 119.983 250 105.311 247.094 91.0666Z" fill="#FF5826"/>
<path d="M109.856 161.946C97.3116 170.757 90.7916 189.792 93.1303 207.074C95.469 224.355 105.816 239.369 118.927 246.898C132.038 254.426 147.487 254.982 161.449 250.192C175.445 245.358 188.45 234.963 195.856 219.821C202.376 206.518 204.254 190.391 203.014 174.992C200.462 142.911 184.127 112.583 160.35 97.9963C136.573 83.4099 105.958 85.677 84.5196 104.84C62.2311 124.774 51.7424 159.636 51.4235 193.129C51.1755 217.34 55.7111 241.85 65.9163 262.725C76.1216 283.599 92.1027 300.624 111.096 308.409C132.959 317.392 156.984 313.927 179.485 307.511C198.017 302.249 217.01 294.464 230.015 277.696C242.523 261.57 247.874 239.07 249.894 217.083C254.961 161.988 241 104.755 212.05 61.7655C209.498 57.9584 206.77 54.1514 205.636 49.4461C204.502 44.7836 205.423 38.9234 208.896 36.4424C213.042 33.4909 218.357 36.4851 222.148 40.0783C239.228 56.1191 247.059 82.2549 254.04 106.936C265.485 147.402 277.072 190.006 271.013 232.183C263.253 285.995 225.09 330.438 180.796 341.56C136.467 352.682 88.4174 331.935 57.5183 292.026C35.4424 263.495 21.5519 225.082 22.1898 186.071C22.8276 147.06 38.8441 108.049 65.8455 86.5752C81.614 74.042 100.536 67.6685 119.387 67.2407C144.334 66.6846 169.563 76.6513 188.521 96.1997C207.478 115.748 216.373 145.349 220.164 175.078C233.31 278.466 121.832 312.986 84.9803 248.523C77.3618 235.177 73.5703 219.051 73.96 202.839C74.5624 179.355 82.5353 155.529 97.7014 140.857C112.867 126.143 135.546 122.25 152.306 134.184C169.067 146.119 177.005 174.693 167.366 195.139C164.673 200.871 160.598 205.919 155.389 207.972C149.861 210.154 138.097 207.502 139.833 197.749C140.365 194.797 141.995 192.359 143.696 190.135C145.397 187.91 147.239 185.814 148.302 183.077C150.251 178.2 149.401 172.126 146.814 167.72C144.227 163.314 140.188 160.406 135.936 158.738C127.077 155.273 117.97 156.171 109.82 161.86L109.856 161.946Z" fill="#4DAA28"/>
<path d="M63.7193 157.925C66.7667 162.245 69.6014 168.49 67.0856 173.281C65.491 176.361 62.3019 177.516 59.3608 178.157C50.7147 180.04 41.7142 179.441 33.3162 176.404C26.619 173.965 20.099 169.816 15.8822 163.058C11.6655 156.342 10.1418 146.717 13.4372 139.232C24.4929 114.208 55.1795 145.734 63.7547 157.882L63.7193 157.925Z" fill="#FFA326"/>
<path d="M130.833 176.703C130.62 176.703 130.443 176.618 130.266 176.489C129.77 176.104 129.664 175.334 129.982 174.736L168.358 104.37C168.677 103.771 169.315 103.6 169.811 104.028C170.307 104.413 170.414 105.183 170.095 105.781L131.719 176.147C131.506 176.532 131.187 176.703 130.833 176.703Z" fill="#FFA326"/>
<path d="M178.989 89.1419C178.812 89.1419 178.599 89.0991 178.422 88.9708C177.926 88.5858 177.784 87.8158 178.068 87.217L194.545 55.0498C194.864 54.4509 195.501 54.2798 195.998 54.622C196.494 55.007 196.635 55.777 196.352 56.3758L179.875 88.543C179.662 88.928 179.343 89.1419 178.989 89.1419Z" fill="#FFA326"/>
<path d="M54.1873 68.8662C54.7897 70.5773 55.9945 71.9888 57.3056 72.9299C60.2821 75.1115 64.2508 75.3253 67.2628 73.1866C73.5702 68.7807 72.2945 57.7874 65.6327 54.7075C59.6443 51.9271 51.6006 61.5516 54.1873 68.8662Z" fill="#FFA326"/>
<path d="M34.8754 45.297C31.6862 49.6173 25.9458 51.5422 21.9416 48.3341C19.4966 46.3664 18.1501 42.8588 17.7603 39.3084C17.3351 35.1164 18.1856 30.7533 20.1345 27.2885C22.0834 23.8237 25.2016 21.2572 28.6034 20.4017C42.1041 16.8941 40.793 37.1697 34.8399 45.297H34.8754Z" fill="#215028"/>
<path d="M15.528 105.525C18.0438 108.262 21.9771 109.203 24.9891 107.321C27.2923 105.867 28.816 102.958 29.383 99.8784C30.8358 91.6655 24.2449 80.9717 16.7328 83.8804C9.50405 86.6608 10.9569 100.563 15.5634 105.525H15.528Z" fill="#4DAA28"/>
<path d="M121.017 44.3131C120.167 49.4889 120.486 55.4775 123.675 59.0707C127.041 62.8777 132.286 62.621 136.821 61.5089C144.334 59.6267 151.491 55.9053 157.799 50.6867C161.342 47.7779 164.638 44.2703 166.799 39.8217C173.674 25.663 164.673 11.9748 152.342 14.4986C137.955 17.4501 124.136 25.4919 120.982 44.3559L121.017 44.3131Z" fill="#4DAA28"/>
<path d="M230.228 20.2733C230.334 22.8398 231.893 25.1924 233.913 26.0052C235.933 26.8179 238.271 26.2618 239.937 24.6791C242.878 21.8987 244.543 14.7552 239.937 13.087C235.897 11.6326 229.944 14.3702 230.192 20.2733H230.228Z" fill="#215028"/>
<path d="M84.2006 8.46723C84.307 11.0338 85.8661 13.3864 87.8859 14.1991C89.9057 15.0547 92.2444 14.4558 93.9098 12.8731C96.8509 10.0927 98.5163 2.94919 93.9098 1.28094C89.8702 -0.173425 83.9172 2.56421 84.1652 8.46723H84.2006Z" fill="#215028"/>
<path d="M289.439 79.9023C289.545 82.4688 291.104 84.8215 293.124 85.6342C295.144 86.4897 297.483 85.8909 299.148 84.3082C302.089 81.5278 303.755 74.3842 299.148 72.716C295.109 71.2616 289.155 73.9993 289.404 79.9023H289.439Z" fill="#4DAA28"/>
<path d="M124.348 116.604C124.455 119.17 126.014 121.523 128.034 122.336C130.053 123.191 132.392 122.592 134.058 121.01C136.999 118.229 138.664 111.086 134.058 109.418C130.018 107.963 124.065 110.701 124.313 116.604H124.348Z" fill="#4DAA28"/>
</svg>
