<svg width="317" height="135" viewBox="0 0 317 135" fill="none" xmlns="http://www.w3.org/2000/svg">
<path d="M273.995 30.8907C268.32 31.0597 262.404 33.4674 258.69 38.7898C254.838 44.3233 253.909 52.2646 255.044 59.4455C256.179 66.5842 259.103 73.0893 262.301 79.2564C264.95 84.4098 267.908 89.5632 272.172 92.7312C277.675 96.8286 284.486 96.9975 290.917 97.0398C296.111 97.0398 302.199 96.5751 305.156 91.3373C306.842 88.3382 307.048 84.452 307.186 80.8193C307.53 71.991 307.874 62.9937 305.879 54.4611C301.786 36.8889 287.787 30.5106 273.995 30.933V30.8907Z" fill="#FF8322"/>
<path d="M200.392 33.8899C189.558 35.9175 179.102 40.395 168.749 44.8303C155.611 50.4483 141.922 56.4888 132.291 68.8653C120.219 84.4099 116.78 107.093 115.645 128.509C114.922 142.195 114.991 156.261 118.74 169.187C124.931 190.519 140.546 206.106 157.674 214.554C174.803 222.96 193.444 225.156 211.845 226.93C228.423 228.535 246.205 229.549 260.478 219.031C275.853 207.711 283.488 185.534 287.822 164.118C291.192 147.433 293.119 129.945 290.711 113.007C283.66 63.1628 240.702 26.3288 200.392 33.8899Z" fill="#804233"/>
<path d="M172.498 8.2498C163.659 9.34806 154.751 13.3187 148.732 21.3022C142.713 29.2857 140.202 41.7467 144.157 51.5043C149.179 63.9231 161.973 67.8938 173.22 68.6541C189.145 69.7101 205.241 67.0067 220.375 60.7973C226.015 58.4741 231.966 55.2215 234.855 48.8432C239.257 39.2123 234.442 26.3711 226.875 20.4151C219.102 14.2902 209.919 14.3747 201.217 11.7558C191.759 8.88341 182.266 7.06706 172.464 8.29204L172.498 8.2498Z" fill="#FFBF00"/>
<path d="M211.983 20.6685C214.321 26.54 220.478 27.9762 225.809 28.3986C231.725 28.8632 238.604 28.3986 242.112 22.5271C248.303 12.1359 239.808 0.688648 231.278 0.899852C223.608 1.06881 206.376 6.51787 211.983 20.6685Z" fill="#FF1F1D"/>
<path d="M103.022 205.852L100.029 203.867C108.559 184.394 117.399 164.245 128.955 146.588C142.094 126.566 156.814 112.88 172.704 105.868C194.785 96.195 221.303 99.1519 245.448 113.978C265.156 126.101 283.385 145.532 301.167 173.453L298.484 176.03C281.012 148.616 263.161 129.523 243.9 117.696C220.581 103.376 195.026 100.461 173.839 109.754C158.534 116.471 144.329 129.734 131.603 149.123C120.253 166.441 111.483 186.421 103.022 205.768V205.852Z" fill="#1F7BB8"/>
<path d="M121.01 129.354C121.491 127.833 122.248 126.144 123.555 125.933C124.518 125.764 125.447 126.524 125.963 127.495C126.479 128.467 126.685 129.65 126.857 130.832C127.373 134.888 126.272 161.626 122.111 159.176C119.462 157.613 119.084 147.56 119.015 144.561C118.878 139.407 119.531 134.212 121.01 129.396V129.354Z" fill="#FF1F1D"/>
<path d="M173.117 89.521C174.046 88.634 175.25 87.8314 176.281 88.3805C177.038 88.8029 177.485 89.8589 177.485 90.8727C177.485 91.8865 177.244 92.9003 176.9 93.8296C175.765 97.1666 165.069 116.428 162.868 112.247C161.492 109.628 164.931 101.94 165.963 99.6588C167.752 95.7304 170.194 92.2244 173.083 89.4788L173.117 89.521Z" fill="#FFBF00"/>
<path d="M245.792 102.193C246.893 102.616 248.131 103.376 248.337 104.77C248.475 105.784 247.993 106.797 247.34 107.431C246.686 108.065 245.826 108.318 245.035 108.529C242.181 109.247 223.161 109.205 224.708 104.643C225.706 101.771 232.791 100.926 234.924 100.715C238.569 100.335 242.284 100.799 245.792 102.235V102.193Z" fill="#FFBF00"/>
<path d="M160.494 135.31C161.767 135.775 163.212 136.619 163.487 138.182C163.693 139.323 163.143 140.548 162.386 141.266C161.629 141.984 160.666 142.322 159.738 142.575C156.47 143.505 134.664 144.096 136.35 138.774C137.416 135.437 145.567 134.254 148.009 133.916C152.171 133.367 156.47 133.789 160.494 135.268V135.31Z" fill="#FFBF00"/>
<path d="M206.927 112.12C207.683 113.091 208.44 114.359 208.131 115.626C207.89 116.555 207.133 117.146 206.376 117.315C205.62 117.484 204.829 117.231 204.072 116.978C201.424 116.048 185.637 105.953 188.56 102.954C190.383 101.095 196.608 104.179 198.466 105.108C201.63 106.713 204.554 109.121 206.961 112.12H206.927Z" fill="#FF8322"/>
<path d="M264.778 140.97C264.984 142.195 265.087 143.631 264.331 144.434C263.78 145.025 262.955 145.025 262.267 144.687C261.613 144.35 261.063 143.674 260.582 143.04C258.862 140.717 250.539 123.229 254.012 122.68C256.214 122.3 259.825 128.467 260.926 130.368C262.748 133.536 264.09 137.169 264.778 141.013V140.97Z" fill="#FF1F1D"/>
<path d="M36.5378 107.135C29.143 112.584 23.6744 121.413 20.063 131.044C16.4516 140.675 14.5943 151.15 13.2529 161.584C11.602 174.34 10.639 187.224 10.3982 200.15C10.2262 209.062 10.6734 218.82 15.5229 225.41C19.6846 231.028 26.3915 233.055 32.5481 232.379C38.739 231.746 44.586 228.789 50.3299 225.874C55.5922 223.213 60.9577 220.467 65.2569 215.905C70.2097 210.668 73.4428 203.402 76.1599 196.094C80.4592 184.647 83.8642 172.693 86.3406 160.443C88.645 148.954 90.1239 136.704 87.4412 125.341C84.7584 113.936 77.0541 103.967 67.1486 102.447C56.5896 100.842 45.9962 100.123 36.5378 107.135Z" fill="#FF8322"/>
<path d="M20.407 32.0735C18.9624 40.4794 21.8171 49.6034 27.1138 55.2214C32.4106 60.8395 39.8397 62.9937 46.7529 61.6843C50.4331 60.9662 54.1133 59.2343 56.7272 55.9818C58.8941 53.2361 60.2011 49.5189 60.8202 45.7595C62.1615 37.5226 60.373 28.5253 55.833 22.2736C45.446 7.95402 23.9152 11.9247 20.407 32.1157V32.0735Z" fill="#804233"/>
<path d="M77.0542 28.0607C70.7944 35.4528 66.8391 45.7173 66.1168 56.3197C65.6009 64.0076 67.0111 72.3712 71.6543 77.5246C75.5064 81.7909 80.9751 83.1849 86.203 83.3961C96.1085 83.734 106.255 80.1858 113.718 72.2023C121.182 64.2188 125.584 51.631 123.933 39.6346C122.386 28.3563 113.89 16.4445 104.432 14.4169C95.4551 12.5161 83.2451 20.753 77.0542 28.0184V28.0607Z" fill="#FF1F1D"/>
<path d="M104.948 142.111C101.543 130.326 106.564 116.217 115.885 111.233C117.536 110.346 119.221 109.797 120.838 109.247C122.248 108.783 123.59 108.318 124.828 107.685C126.788 106.713 129.024 104.728 129.333 102.278C129.643 99.9122 128.13 97.5045 126.479 96.364C124.656 95.0968 122.214 94.6321 119.015 94.9278C109.178 95.8149 99.8919 102.785 94.8016 113.134C94.2513 114.274 93.7354 115.415 93.1851 116.682C92.0157 119.343 90.8119 122.089 89.0578 124.539C86.4438 128.256 81.9382 131.72 77.0886 130.157C73.6836 129.058 70.8288 125.51 69.625 120.864C68.49 116.513 68.9028 112.078 69.2811 109.121C70.932 96.6175 76.4695 84.8323 84.4833 76.8065C84.9649 76.3419 85.4464 75.8772 85.9279 75.4126C87.4756 73.9342 88.9202 72.5402 89.952 70.8506C90.8807 69.2877 91.5685 66.8799 90.8463 65.2326C90.0896 63.5429 87.9571 62.8671 86.203 62.7826C79.8745 62.4447 73.2364 67.3024 69.2467 75.2014C65.9449 81.7065 64.2252 90.2813 63.9156 101.306V102.404C63.8124 105.404 63.7436 108.529 62.9526 111.655C61.8176 116.133 59.3412 119.554 56.2457 120.779C50.7082 122.976 45.4115 117.991 42.3161 112.542C32.6513 95.6459 32.6513 71.104 42.2817 54.1655L42.6944 53.4474C44.139 50.9552 45.6179 48.3363 45.2396 46.2665C44.8612 44.1967 42.3848 43.1406 40.5963 43.6475C38.5327 44.2389 36.5034 46.182 34.4398 49.6035C28.2488 59.7835 26.8731 71.9066 26.8043 80.2703C26.7355 89.8167 28.2488 100.335 31.5163 113.303C32.6169 117.611 34.6462 125.679 30.5532 131.17C27.0106 135.901 21.198 135.31 17.3115 133.325C11.5677 130.41 6.75247 124.454 3.76017 116.64C1.35258 110.346 0.148783 103.038 0.0112062 94.2097C-0.229553 77.9893 3.41623 61.3887 10.2607 47.5337L14.9039 50.9974C8.57536 63.7964 5.20473 79.0875 5.44549 94.083C5.54867 101.94 6.61489 108.36 8.67854 113.809C11.0517 120.061 14.9727 124.919 19.3751 127.158C21.7483 128.34 24.9814 128.72 26.4947 126.651C28.2488 124.327 27.4234 119.808 26.2884 115.33C22.8146 101.644 21.2324 90.4925 21.3012 80.228C21.37 70.8506 22.9521 57.2491 30.0029 45.6328C32.8921 40.8596 35.9531 38.114 39.3238 37.1847C43.795 35.9597 49.3325 38.7054 50.4675 44.8303C51.3961 49.8147 48.9885 53.9965 47.0625 57.3758L46.6497 58.0939C38.2919 72.7937 38.2919 94.1252 46.6841 108.783C48.5758 112.12 51.7745 115.584 54.4916 114.528C56.1081 113.894 57.2087 111.655 57.6559 109.797C58.2062 107.516 58.275 104.981 58.3438 102.32V101.179C58.6877 88.9296 60.7169 79.2987 64.5003 71.7799C69.4875 61.8533 78.0516 55.7284 86.3406 56.193C90.6055 56.4465 93.9417 58.6008 95.5239 62.149C97.1748 65.8662 96.6589 70.8928 94.2169 74.9479C92.7723 77.3557 90.9494 79.0875 89.1953 80.7772C88.7482 81.1996 88.3011 81.6642 87.854 82.0866C80.8719 89.0986 76.0568 99.4053 74.5778 110.303C74.0963 113.936 74.1307 116.682 74.7154 118.921C75.3689 121.371 76.8134 123.271 78.3956 123.778C80.6656 124.496 83.2795 122.553 84.8617 120.272C86.203 118.371 87.2349 116.048 88.3011 113.598C88.8514 112.331 89.4361 111.064 90.0552 109.754C96.0742 97.589 106.977 89.3943 118.534 88.3805C122.833 88.0003 126.272 88.7607 129.058 90.6615C132.945 93.3649 135.215 98.6028 134.596 103.46C134.011 107.98 131.156 111.824 126.788 114.021C125.24 114.781 123.693 115.33 122.179 115.837C120.666 116.344 119.221 116.851 117.914 117.527C111.242 121.075 107.527 131.593 109.935 139.999L104.81 142.237L104.948 142.111Z" fill="#FFBF00"/>
<path d="M298.484 119.089C299.034 122.342 301.132 125.172 303.781 125.764C305.776 126.186 307.874 125.341 309.559 123.905C314.477 119.681 315.337 109.205 309.043 105.953C303.23 102.911 297.418 112.584 298.484 119.089Z" fill="#FF1F1D"/>
<path d="M116.883 14.7971C115.3 16.6979 113.856 18.8944 113.34 21.5134C112.721 24.5547 113.443 27.8072 114.544 30.6374C116.401 35.2838 119.462 39.2545 123.314 41.282C127.201 43.3096 131.878 43.1406 135.421 40.3527C143.916 33.7209 141.234 20.9642 136.143 12.8118C130.847 4.32137 122.351 8.16528 116.883 14.7971Z" fill="#1F475C"/>
<path d="M251.158 77.3979C253.931 77.3979 256.179 74.6368 256.179 71.2307C256.179 67.8247 253.931 65.0636 251.158 65.0636C248.384 65.0636 246.136 67.8247 246.136 71.2307C246.136 74.6368 248.384 77.3979 251.158 77.3979Z" fill="#FFBF00"/>
<path d="M277.641 19.8659C280.415 19.8659 282.663 17.1048 282.663 13.6988C282.663 10.2927 280.415 7.53162 277.641 7.53162C274.868 7.53162 272.62 10.2927 272.62 13.6988C272.62 17.1048 274.868 19.8659 277.641 19.8659Z" fill="#1F475C"/>
<path d="M53.5974 86.8176C56.3707 86.8176 58.6189 84.0564 58.6189 80.6504C58.6189 77.2444 56.3707 74.4833 53.5974 74.4833C50.824 74.4833 48.5758 77.2444 48.5758 80.6504C48.5758 84.0564 50.824 86.8176 53.5974 86.8176Z" fill="#1F475C"/>
<path d="M8.57532 16.4866C11.3486 16.4866 13.5969 13.7255 13.5969 10.3195C13.5969 6.91347 11.3486 4.15234 8.57532 4.15234C5.802 4.15234 3.55377 6.91347 3.55377 10.3195C3.55377 13.7255 5.802 16.4866 8.57532 16.4866Z" fill="#1F475C"/>
<path d="M170.641 14.0791C173.414 14.0791 175.662 11.3179 175.662 7.9119C175.662 4.50588 173.414 1.74475 170.641 1.74475C167.867 1.74475 165.619 4.50588 165.619 7.9119C165.619 11.3179 167.867 14.0791 170.641 14.0791Z" fill="#1F475C"/>
<path d="M208.199 71.2307C210.972 71.2307 213.221 68.4695 213.221 65.0635C213.221 61.6575 210.972 58.8964 208.199 58.8964C205.426 58.8964 203.178 61.6575 203.178 65.0635C203.178 68.4695 205.426 71.2307 208.199 71.2307Z" fill="#1F475C"/>
<path d="M92.2564 104.854C95.0297 104.854 97.278 102.093 97.278 98.6872C97.278 95.2811 95.0297 92.52 92.2564 92.52C89.4831 92.52 87.2349 95.2811 87.2349 98.6872C87.2349 102.093 89.4831 104.854 92.2564 104.854Z" fill="#1F475C"/>
<path d="M230.693 145.659C233.466 145.659 235.715 142.898 235.715 139.492C235.715 136.086 233.466 133.325 230.693 133.325C227.92 133.325 225.672 136.086 225.672 139.492C225.672 142.898 227.92 145.659 230.693 145.659Z" fill="#FFBF00"/>
<path d="M307.461 70.0902C310.234 70.0902 312.482 67.329 312.482 63.923C312.482 60.517 310.234 57.7559 307.461 57.7559C304.687 57.7559 302.439 60.517 302.439 63.923C302.439 67.329 304.687 70.0902 307.461 70.0902Z" fill="#1F475C"/>
</svg>
