<svg width="317" height="135" viewBox="0 0 317 135" fill="none" xmlns="http://www.w3.org/2000/svg">
<path d="M52.1412 71.7984C57.4179 61.1544 59.0017 47.6081 54.5976 36.4407C50.1936 25.2733 39.1535 17.5443 28.8278 20.1617C19.5023 22.5255 12.6107 32.5102 10.309 43.2776C8.0073 54.045 9.58456 65.4386 12.2348 76.0971C13.4026 80.7937 14.8105 85.4996 17.2771 89.4595C23.056 98.7369 28.5822 97.2475 35.7219 91.57C42.2704 86.3627 48.1553 79.8388 52.1412 71.7984Z" fill="#FFBB18"/>
<path d="M21.1843 38.7155C34.6147 59.2136 48.2843 80.2338 55.08 104.759C60.5139 124.37 61.4569 145.908 70.3104 163.756C76.0676 175.363 84.7631 184.53 92.3542 194.611C106.853 213.866 117.411 236.614 127.843 259.147C69.6722 204.571 31.3322 124.807 21.1843 38.7155Z" fill="#243338"/>
<path d="M42.4871 112.06C36.4693 113.567 30.7905 118.794 29.7814 125.853C29.1711 130.122 30.309 134.537 32.2322 138.242C35.9847 145.473 42.9781 150.426 50.2425 150.463C57.5069 150.499 64.7175 145.365 67.5966 137.613C70.1671 130.691 69.0373 119.34 63.1367 114.891C58.0973 111.091 48.0053 110.678 42.4871 112.06Z" fill="#FF561F"/>
<path d="M80.1289 134.171C80.149 136.333 81.1184 138.346 82.3319 139.984C83.8926 142.091 85.9568 143.774 88.297 144.349C92.9326 145.489 98.0249 141.431 98.7826 135.994C100.89 120.876 80.0053 120.889 80.1289 134.171Z" fill="#FF561F"/>
<path d="M242.184 93.8475C242.196 95.1374 242.774 96.3386 243.498 97.3161C244.43 98.5734 245.662 99.5781 247.058 99.9212C249.824 100.601 252.863 98.1795 253.315 94.9352C254.573 85.9138 242.11 85.921 242.184 93.8475Z" fill="#243338"/>
<path d="M293.213 56.1041C293.225 57.394 293.804 58.5952 294.528 59.5727C295.459 60.83 296.691 61.8347 298.088 62.1778C300.854 62.8576 303.893 60.4361 304.345 57.1918C305.602 48.1704 293.14 48.1776 293.213 56.1041Z" fill="#243338"/>
<path d="M16.5318 112.856C16.539 113.631 16.8865 114.352 17.3214 114.939C17.8808 115.694 18.6207 116.298 19.4595 116.504C21.121 116.912 22.9461 115.458 23.2178 113.509C23.973 108.091 16.4875 108.095 16.5318 112.856Z" fill="#FF561F"/>
<path d="M180.749 25.6285C180.756 26.4033 181.103 27.1247 181.538 27.7119C182.098 28.467 182.837 29.0705 183.676 29.2766C185.338 29.6848 187.163 28.2304 187.435 26.2818C188.19 20.8633 180.704 20.8677 180.749 25.6285Z" fill="#FFBB18"/>
<path d="M281.127 13.3165C281.134 14.0913 281.482 14.8127 281.917 15.3998C282.476 16.155 283.216 16.7584 284.055 16.9645C285.716 17.3728 287.541 15.9184 287.813 13.9698C288.568 8.5513 281.083 8.55566 281.127 13.3165Z" fill="#FFBB18"/>
<path d="M33.9737 40.5302C33.9809 41.3049 34.3284 42.0263 34.7633 42.6135C35.3227 43.3686 36.0626 43.9721 36.9014 44.1782C38.5629 44.5864 40.388 43.132 40.6596 41.1834C41.4149 35.7649 33.9294 35.7693 33.9737 40.5302Z" fill="#243338"/>
<path d="M190.015 89.313C190.022 90.0878 190.37 90.8092 190.804 91.3963C191.364 92.1515 192.104 92.7549 192.943 92.961C194.604 93.3693 196.429 91.9149 196.701 89.9663C197.456 84.5478 189.971 84.5521 190.015 89.313Z" fill="#243338"/>
<path d="M84.8256 40.5447C81.8279 47.5561 83.1968 56.6952 87.9461 62.2473C92.6953 67.7994 100.436 69.4674 106.645 66.4348C112.544 63.5543 116.824 56.6375 117.297 49.2212C117.784 41.5932 113.476 29.9757 106.389 28.0336C98.5326 25.8807 88.2914 32.4389 84.8256 40.5447Z" fill="#243338"/>
<path d="M95.1169 19.6226C95.1241 20.3973 95.4716 21.1188 95.9065 21.7059C96.4659 22.461 97.2058 23.0645 98.0445 23.2706C99.7061 23.6788 101.531 22.2245 101.803 20.2758C102.558 14.8573 95.0726 14.8617 95.1169 19.6226Z" fill="#FFBB18"/>
<path d="M301.064 122.168C301.072 122.943 301.419 123.665 301.854 124.252C302.413 125.007 303.153 125.61 303.992 125.816C305.654 126.225 307.479 124.77 307.75 122.822C308.506 117.403 301.02 117.407 301.064 122.168Z" fill="#243338"/>
<path d="M134.205 27.4346C134.217 28.7244 134.795 29.9256 135.519 30.9031C136.451 32.1605 137.683 33.1651 139.079 33.5083C141.845 34.188 144.884 31.7666 145.336 28.5222C146.594 19.5008 134.131 19.508 134.205 27.4346Z" fill="#243338"/>
<path d="M63.4576 34.2068C63.4696 35.4966 64.0482 36.6978 64.7723 37.6753C65.7036 38.9327 66.9354 39.9373 68.332 40.2805C71.0983 40.9602 74.137 38.5388 74.5892 35.2944C75.8467 26.273 63.3839 26.2803 63.4576 34.2068Z" fill="#2581FF"/>
<path d="M113.407 75.8467C108.508 89.0999 112.393 105.787 121.996 114.923C131.599 124.06 145.997 125.347 156.999 118.674C168 112 175.242 98.0096 175.821 83.6007C176.451 67.9527 169.993 46.5181 154.104 49.1206C138.479 51.6798 120.251 57.3284 113.407 75.8467Z" fill="#2581FF"/>
<path d="M176.823 133.384C166.69 137.419 157.893 147.986 157.581 160.43C157.387 168.164 160.417 175.636 164.67 181.587C172.449 192.472 184.88 199.007 196.97 197.356C209.061 195.706 220.213 185.35 223.293 171.659C230.622 139.085 198.625 124.701 176.823 133.384Z" fill="#243338"/>
<path d="M164.666 96.9677C156.451 99.1604 149.253 106.408 146.67 115.735C144.086 125.062 146.456 136.126 152.815 142.558C161.021 150.859 174.516 149.905 182.713 141.593C189.876 134.329 194.757 119.129 191.159 108.278C187.566 97.4404 173.136 94.7073 164.666 96.9677Z" fill="#FF561F"/>
<path d="M75.5015 57.0031C75.5015 57.0031 73.9264 80.6457 84.145 82.807C92.2253 84.516 121.071 83.5222 132.789 83.0315C135.314 82.9257 137.238 85.6217 136.683 88.4872C132.734 108.876 119.741 177.274 122.761 179.28C126.31 181.638 169.748 166.703 169.748 166.703L180.569 188.933C180.569 188.933 121.32 219.445 107.588 202.015C93.8564 184.585 109.108 109.529 109.108 109.529C109.108 109.529 63.079 109.136 58.6912 92.6311C54.3035 76.1265 75.5015 57.0031 75.5015 57.0031Z" fill="#FF2D49"/>
<path d="M292.884 113.726C290.132 122.81 281.919 127.718 274.557 132.137C267.195 136.556 259.226 142.56 257.859 152.059C256.233 163.355 264.825 173.052 273.367 178.758C281.91 184.463 291.862 189.223 296.452 199.357C300.295 207.843 299.249 218.64 294.888 226.78C290.526 234.919 283.242 240.552 275.423 243.612C271.45 245.168 267.262 246.141 263.596 248.504C259.929 250.868 256.757 255.076 256.762 259.949C256.77 267.809 264.637 272.504 271.396 272.706C278.156 272.907 286.603 269.237 293.142 271.234L290.615 303.866C268.882 306.806 246.563 303.724 226.027 294.946C216.645 290.936 206.573 284.263 204.528 272.889C202.955 264.138 206.913 255.002 212.764 249.198C218.614 243.395 226.088 240.346 233.475 237.859C240.863 235.373 248.45 233.282 255.189 228.972C259.203 226.404 263.121 222.592 263.946 217.352C265.101 210.025 259.692 203.363 253.873 200.24C245.333 195.654 235.575 195.747 226.276 194.089C216.977 192.431 207.006 188.065 202.788 178.29C198.74 168.906 201.443 157.063 207.203 148.977C212.963 140.892 221.236 135.851 229.46 131.514C237.685 127.177 246.222 123.242 253.268 116.676C260.29 110.131 265.769 98.8834 261.947 89.4111C258.158 80.0208 247.741 77.7111 238.84 76.98C224.686 75.8174 210.486 77.6113 196.297 77.6113L201.866 22.7815C224.544 22.7815 246.493 29.8349 266.568 42.0955C277.436 48.7333 287.914 57.343 294.111 69.6628C300.308 81.9826 296.963 100.265 292.884 113.726Z" fill="#2581FF"/>
<path d="M250.67 29.2408C247.657 32.0341 245.144 35.9353 244.819 40.3989C244.47 45.1931 246.766 49.8926 250.035 52.8449C253.303 55.7972 257.42 57.2121 261.516 57.8988C267.486 58.8994 274.409 58.03 278.15 52.5314C280.48 49.1071 281.112 44.4359 280.606 40.1099C279.821 33.406 277.941 26.4879 272.22 24.1694C265.237 21.3391 256.293 24.0264 250.67 29.2408Z" fill="#243338"/>
<path d="M266.568 42.0952C256.292 35.8198 245.523 30.9193 234.419 27.6199L230.142 76.6016C233.043 76.6324 235.942 76.7421 238.84 76.98C247.741 77.7109 258.158 80.0207 261.947 89.4111C262.139 89.8877 262.302 90.3699 262.448 90.8543C275.911 88.5828 289.671 83.8327 295.871 74.1137C295.399 72.5639 294.82 71.0727 294.111 69.6626C287.914 57.3427 277.436 48.7331 266.568 42.0952Z" fill="#FFBB18"/>
<path d="M226.276 194.089C232.927 195.275 239.811 195.573 246.319 197.321L270.713 176.849C263.149 171.016 256.402 162.181 257.859 152.059C258.731 145.999 262.292 141.364 266.666 137.653L246.792 121.801C241.286 125.557 235.296 128.437 229.46 131.514C221.236 135.851 212.963 140.891 207.203 148.977C201.443 157.063 198.74 168.906 202.788 178.29C207.006 188.065 216.977 192.431 226.276 194.089Z" fill="#FF2D49"/>
<path d="M212.583 90.4337C207.984 92.7216 204.115 97.8497 204.182 103.663C204.232 107.993 206.493 112.068 209.63 114.404C212.767 116.741 216.666 117.455 220.366 116.952C225.847 116.207 231.264 112.495 233.389 106.575C235.405 100.96 233.397 93.0424 228.871 89.728C224.635 86.627 216.819 88.326 212.583 90.4337Z" fill="#2581FF"/>
<path d="M153.16 36.1516C146.566 39.4324 141.017 46.7857 141.114 55.1222C141.186 61.331 144.429 67.1739 148.926 70.524C153.424 73.874 159.015 74.8989 164.32 74.1772C172.18 73.1081 179.948 67.7858 182.996 59.2971C185.886 51.245 183.007 39.8924 176.516 35.1398C170.443 30.6932 159.234 33.1295 153.16 36.1516Z" fill="#FFBB18"/>
<path d="M85.5085 107.262C97.5774 109.43 109.108 109.529 109.108 109.529C109.108 109.529 108.514 112.454 107.667 117.273L131.671 115.035C133.69 104.048 135.556 94.309 136.683 88.4872C137.238 85.6217 135.314 82.9256 132.789 83.0316C123.14 83.4357 101.888 84.1792 90.1689 83.4758C88.6301 90.8338 86.87 100.006 85.5085 107.262Z" fill="#FFBB18"/>
<path d="M212.96 125.774C212.967 126.549 213.315 127.27 213.75 127.857C214.309 128.613 215.049 129.216 215.888 129.422C217.549 129.83 219.374 128.376 219.646 126.427C220.401 121.009 212.916 121.013 212.96 125.774Z" fill="#2581FF"/>
</svg>
