<svg width="428" height="614" viewBox="0 0 428 614" fill="none" xmlns="http://www.w3.org/2000/svg">
<path d="M87.1173 301.227C87.1173 301.227 85.4913 325.741 83.0493 328.19C80.6073 330.642 48.8669 329.008 48.0529 328.19C47.2388 327.375 43.1708 302.861 43.9848 302.044C44.7988 301.227 87.1173 301.227 87.1173 301.227Z" fill="#EFCDBB"/>
<path d="M47.253 282.346C53.2042 280.106 57.6671 292.054 57.6671 292.054C57.6671 292.054 45.7647 259.194 53.9473 258.448C62.13 257.7 64.3614 283.092 64.3614 283.092C64.3614 283.092 62.13 244.258 70.3106 245.752C78.4932 247.246 72.542 290.561 72.542 290.561C72.542 290.561 78.4932 273.385 82.9561 277.865C85.955 280.876 81.5691 288.937 78.3657 293.908C79.6859 293.495 81.1843 293.204 82.213 293.548C84.4444 294.294 79.9815 298.775 79.9815 298.775H51.7159C51.7159 298.775 41.3018 284.586 47.253 282.346Z" fill="#EFCDBB"/>
<path d="M317.14 101.758C313.529 105.765 307.078 106.759 305.1 106.796H304.642C304.207 106.786 300.284 106.666 296.522 104.594C292.503 102.382 290.354 98.855 290.14 94.1039C289.943 89.7614 291.466 87.5719 293.572 84.5366C295.176 82.2271 296.984 79.6248 298.448 75.4978L301.686 75.3921C301.763 76.4188 301.825 77.4597 301.706 78.4843C301.56 79.7224 301.121 80.9036 300.702 82.0705C299.926 84.2255 299.347 86.4679 299.537 88.7795C299.566 89.1068 299.867 89.2369 300.102 89.1698C300.386 89.8305 300.88 90.2676 301.815 89.7838C301.945 89.7207 302.06 89.6313 302.17 89.5337C302.433 90.1009 302.86 90.5787 303.526 90.5177C304.059 90.4648 304.543 89.9911 304.911 89.3609C305.106 89.4971 305.339 89.5906 305.626 89.6171C306.315 89.6801 306.782 89.3141 307.096 88.7693C307.185 88.9137 307.287 89.0499 307.4 89.18C307.847 89.6943 308.702 90.0074 309.178 89.5845C309.311 89.554 309.427 89.4666 309.457 89.304C310.407 84.4634 306.647 80.0091 307.858 75.1888L311.747 75.0648C313.183 80.4197 315.02 83.2355 316.51 85.5206C318.067 87.9053 319.296 89.7878 319.626 93.7542C319.892 96.94 319.055 99.6357 317.14 101.758ZM307.71 85.4677C307.692 84.9534 307.013 84.8903 306.841 85.3539C306.574 86.0674 306.507 86.8786 306.663 87.639C306.606 87.7955 306.535 87.9398 306.438 88.0496C306.365 88.383 306.13 88.4257 305.733 88.1696C305.602 88.2062 305.494 88.2163 305.399 88.2123C305.703 87.1856 305.705 86.0979 305.201 85.6242C305.013 85.4474 304.636 85.4433 304.514 85.7137C304.203 86.3948 304.026 87.582 304.306 88.4766C304.077 89.0804 303.599 89.9546 302.86 88.9502C302.814 88.8832 302.781 88.8039 302.745 88.7327C303.212 87.7386 303.275 86.3643 303.117 85.5104C303.052 85.1506 302.504 85.0896 302.344 85.4067C301.848 86.3948 301.655 87.4458 301.862 88.5396L301.817 88.6534C301.41 88.5965 301.001 88.5396 300.594 88.4827C300.627 88.5131 300.503 87.7386 300.454 87.4417C300.625 85.4108 301.115 83.575 301.811 81.5867C302.546 79.4825 302.676 77.5268 302.498 75.3677L307.056 75.2152C305.889 79.8424 309.077 84.1991 308.651 88.8466C308.291 89.2166 307.787 87.9988 307.568 87.3889C307.704 86.6712 307.726 85.9373 307.71 85.4677ZM318.176 84.4227C316.725 82.1946 315.091 79.6919 313.758 74.8615L313.841 74.8574C316.314 74.7009 316.318 71.1513 313.841 70.9947C313.45 70.9683 313.051 70.9541 312.655 70.9276C312.632 70.7975 312.604 70.6715 312.582 70.5373C310.765 59.6079 312.25 54.4908 306.507 53.6633C306.63 34.0733 307.05 27.1306 306.533 6.40813C306.503 5.1741 304.65 5.1741 304.618 6.40813C304.099 27.1306 304.521 33.9859 304.644 53.5393H304.612V53.5495C297.255 53.7691 299.108 58.8109 297.16 70.5373C297.134 70.6979 297.101 70.8484 297.073 71.0049C296.7 71.0374 296.326 71.0618 295.957 71.0943C293.618 71.318 293.614 74.5281 295.957 74.7517C296.162 74.7741 296.37 74.7842 296.575 74.8046C295.2 78.6917 293.471 81.1862 291.938 83.392C289.783 86.4944 287.922 89.1739 288.149 94.1974C288.663 105.531 299.14 108.701 304.604 108.794C304.604 108.794 304.693 108.794 304.842 108.794H304.915C304.992 108.794 305.065 108.794 305.136 108.79L305.138 108.794C307.495 108.754 314.511 107.656 318.616 103.102C320.916 100.551 321.925 97.3506 321.611 93.5875C321.24 89.117 319.821 86.9416 318.176 84.4227Z" fill="#EFCDBB"/>
<path d="M283.771 145.785C280.161 149.79 273.71 150.786 271.731 150.819L271.5 150.821H271.403L271.272 150.819C270.836 150.81 266.914 150.688 263.152 148.619C259.132 146.407 256.986 142.878 256.771 138.129C256.573 133.786 258.096 131.597 260.201 128.563C261.807 126.252 263.615 123.649 265.077 119.522L268.376 119.413C268.459 120.474 268.534 121.551 268.41 122.609C268.271 123.82 267.841 124.965 267.432 126.105C266.677 128.203 266.114 130.387 266.298 132.639C266.327 132.957 266.618 133.083 266.849 133.018C267.125 133.664 267.607 134.085 268.516 133.619C268.643 133.554 268.757 133.469 268.862 133.373C269.119 133.924 269.536 134.394 270.184 134.331C270.701 134.28 271.172 133.821 271.533 133.203C271.721 133.337 271.95 133.428 272.229 133.455C272.9 133.516 273.353 133.16 273.661 132.627C273.748 132.768 273.847 132.902 273.957 133.028C274.392 133.528 275.224 133.835 275.688 133.426C275.817 133.392 275.929 133.304 275.961 133.15C276.893 128.403 273.167 124.034 274.426 119.303L274.43 119.22L278.379 119.089C279.813 124.444 281.651 127.262 283.142 129.543C284.697 131.928 285.928 133.812 286.256 137.779C286.523 140.967 285.685 143.66 283.771 145.785ZM274.258 129.415C274.24 128.911 273.582 128.852 273.414 129.301C273.153 130.001 273.088 130.789 273.24 131.527C273.183 131.682 273.114 131.822 273.019 131.93C272.948 132.255 272.721 132.294 272.335 132.048C272.205 132.082 272.1 132.093 272.009 132.086C272.304 131.086 272.306 130.027 271.814 129.563C271.632 129.393 271.263 129.391 271.146 129.651C270.842 130.316 270.67 131.475 270.944 132.341C270.721 132.934 270.255 133.784 269.536 132.806C269.488 132.741 269.457 132.666 269.423 132.593C269.878 131.623 269.941 130.285 269.787 129.452C269.723 129.106 269.188 129.047 269.034 129.354C268.55 130.318 268.364 131.34 268.562 132.404L268.52 132.515C268.123 132.461 267.724 132.406 267.327 132.349C267.359 132.379 267.24 131.623 267.191 131.332C267.357 129.36 267.833 127.569 268.512 125.632C269.249 123.523 269.362 121.568 269.166 119.386L273.665 119.24C272.393 123.82 275.595 128.114 275.176 132.707C274.823 133.064 274.333 131.875 274.121 131.285C274.252 130.584 274.275 129.87 274.258 129.415ZM288.242 137.612C287.87 133.14 286.45 130.964 284.808 128.447C283.354 126.221 281.72 123.717 280.388 118.882H280.473C282.943 118.726 282.947 115.176 280.473 115.019C280.08 114.993 279.681 114.973 279.286 114.952C279.262 114.822 279.234 114.696 279.211 114.562C277.397 103.632 278.879 98.5154 273.137 97.688C273.26 78.0939 273.681 21.6454 273.163 0.927052C273.132 -0.306983 271.28 -0.311049 271.249 0.927052C270.731 21.6454 271.152 78.0166 271.274 97.564H271.243V97.5741C263.885 97.7937 265.74 102.831 263.792 114.562C263.765 114.723 263.733 114.873 263.702 115.03C263.332 115.062 262.957 115.086 262.589 115.123C260.25 115.343 260.244 118.559 262.589 118.776C262.791 118.799 263.002 118.809 263.206 118.829C261.829 122.716 260.102 125.211 258.567 127.419C256.413 130.521 254.554 133.199 254.781 138.22C255.295 149.558 265.77 152.728 271.235 152.819C271.235 152.819 271.322 152.821 271.474 152.821H271.547C271.622 152.821 271.695 152.821 271.768 152.817V152.819C274.125 152.78 281.143 151.683 285.247 147.127C287.548 144.575 288.556 141.375 288.242 137.612Z" fill="#EFCDBB"/>
<path d="M401.646 607.719C401.646 611.134 346.611 613.897 177.189 613.897C8.19277 613.897 0 611.134 0 607.719C0 604.309 14.9782 604.102 177.4 604.102C340.67 604.102 401.646 604.309 401.646 607.719Z" fill="#755D7F"/>
<path d="M127.152 606.678C127.13 606.267 125.022 567.583 121.719 525.711C119.779 501.146 117.815 481.111 115.879 466.16C112.589 440.764 110.141 436.328 109.468 435.572C104.526 430.017 76.0738 423.654 55.2982 419.007C28.205 412.948 17.7524 410.301 15.4765 406.526C10.9933 399.089 11.2262 378.652 11.2687 376.348L16.7278 376.452C16.6266 382.219 17.0275 398.238 20.0527 403.436C22.5272 405.886 41.3284 410.09 56.4504 413.473C86.2631 420.141 107.804 425.354 113.482 431.731C115.371 433.854 120.393 439.495 127.16 525.26C130.473 567.213 132.583 605.964 132.603 606.377L127.152 606.678Z" fill="#8DA1B2"/>
<path d="M18.3881 605.663C18.3597 607.501 12.8702 607.818 12.935 605.366C12.9998 602.915 15.0672 567.213 18.378 525.26C25.1452 439.495 30.167 433.854 32.0582 431.731C37.734 425.354 59.275 420.141 89.0876 413.473C104.212 410.09 123.011 405.886 125.485 403.436C128.511 398.238 128.913 382.219 128.81 376.452L134.269 376.348C134.312 378.652 134.545 399.089 130.062 406.526C127.788 410.301 117.333 412.948 90.2398 419.007C69.4643 423.654 41.0124 430.017 36.0696 435.572C35.3973 436.328 32.9492 440.764 29.6587 466.164C27.7229 481.117 25.7587 501.156 23.8189 525.721C20.5142 567.593 18.4164 603.831 18.3881 605.663Z" fill="#8DA1B2"/>
<path d="M127.85 607.761L122.991 607.031L141.527 482.967C142.407 476.335 147.751 463.717 161.632 463.717H204.53C214.083 463.717 219.652 460.289 222.584 452.6C224.687 447.089 230.681 397.605 235.496 357.846C239.109 328.017 242.521 299.844 244.135 291.047L248.968 291.942C247.381 300.59 243.977 328.69 240.374 358.439C234.002 411.047 229.327 448.723 227.174 454.367C223.507 463.977 216.1 468.649 204.53 468.649H161.632C148.61 468.649 146.476 483.053 146.392 483.666L127.85 607.761Z" fill="#333333"/>
<path d="M213.579 606.35C213.737 604.909 208.954 513.981 206.479 490.804C204.264 470.043 195.833 468.612 195.75 468.6L195.814 468.606L196.225 463.69C197.497 463.798 208.717 465.457 211.366 490.28C213.854 513.596 218.522 604.628 218.487 606.1C218.453 607.578 213.421 607.792 213.579 606.35Z" fill="#333333"/>
<path d="M274.419 468.571H234.217V463.794H274.419C283.307 463.794 288.5 460.366 291.248 452.677C293.212 447.18 298.678 398.081 303.068 358.63C306.427 328.457 309.6 299.954 311.123 291.088L315.814 291.901C314.312 300.627 311.149 329.058 307.8 359.161C301.988 411.334 297.728 448.699 295.727 454.29C292.291 463.9 285.323 468.571 274.419 468.571Z" fill="#333333"/>
<path d="M232.064 388.996C232.064 388.996 299.396 391.094 305.676 387.735C311.947 384.377 320.054 297.342 319.635 291.883C319.22 286.422 313.571 277.079 310.434 275.926C302.719 273.088 248.118 273.407 245.192 276.765C242.264 280.124 223.701 384.377 232.064 388.996Z" fill="#E74854"/>
<path d="M310.165 279.687C309.517 279.508 308.604 279.913 308.49 280.648C305.769 298.228 308.328 282.33 305.607 299.909C302.891 317.491 300.17 335.07 297.452 352.649C295.92 362.566 294.385 372.483 292.85 382.4C292.736 383.13 293.042 383.874 293.81 384.084C294.458 384.261 295.369 383.858 295.484 383.122C298.206 365.543 300.921 347.961 303.643 330.382C306.36 312.803 309.588 291.285 311.123 281.37C311.238 280.638 310.93 279.896 310.165 279.687Z" fill="#AB2B30"/>
<path d="M291.232 606.35C291.378 604.909 286.603 513.981 284.131 490.804C281.917 470.043 273.486 468.612 273.401 468.6L273.465 468.606L273.879 463.69C275.148 463.798 286.37 465.457 289.019 490.28C291.507 513.596 295.94 604.628 296.136 606.1C296.339 607.578 291.082 607.792 291.232 606.35Z" fill="#333333"/>
<path d="M300.47 435.24H152.704C148.798 435.24 145.631 438.42 145.631 442.342V456.697C145.631 460.618 148.798 463.798 152.704 463.798H295.551C298.599 463.798 301.306 461.84 302.264 458.937L307.184 444.582C308.703 439.983 305.297 435.24 300.47 435.24Z" fill="#E74854"/>
<path d="M117.85 542.449C117.85 542.449 111.358 565.688 110.003 569.726C109.041 572.594 91.1168 591.575 75.9482 595.551C61.9136 599.225 59.2691 599.225 58.4551 601.88C57.4487 605.169 58.4672 608.416 62.7884 608.416C99.2184 608.416 138.269 610.244 138.799 605.757C139.103 603.187 138.261 588.448 138.846 572.834C139.279 561.254 145.49 549.262 144.767 547.363C143.066 542.892 117.85 542.449 117.85 542.449Z" fill="#E5936F"/>
<path d="M138.846 572.834C138.87 572.157 138.917 571.48 138.979 570.803C135.171 570.82 131.36 570.48 127.604 569.746C123.331 568.915 119.164 567.551 115.211 565.725C114.035 565.178 112.885 564.578 111.74 563.964C110.969 566.619 110.333 568.742 110.003 569.726C109.041 572.594 91.1168 591.575 75.9482 595.551C61.9136 599.225 59.2691 599.225 58.4551 601.88C57.4487 605.169 58.4672 608.416 62.7884 608.416C99.2184 608.416 138.269 610.244 138.799 605.757C139.103 603.187 138.261 588.448 138.846 572.834Z" fill="white"/>
<path d="M138.799 605.757C139.054 603.612 138.512 593.022 138.662 580.521C132.785 581.91 122.969 586.266 120.03 584.675C116.554 582.794 117.892 579.037 114.95 576.081C112.753 573.879 108.92 573.619 107.116 573.629C101.288 580.218 87.7818 592.449 75.9482 595.551C61.9136 599.225 59.2691 599.225 58.4551 601.88C57.4487 605.169 58.4672 608.416 62.7884 608.416C99.2184 608.416 138.269 610.244 138.799 605.757Z" fill="#E74854"/>
<path d="M138.799 605.757C138.915 604.793 138.866 602.103 138.793 598.304C125.493 600.141 104.37 602.343 90.6711 602.571C74.7473 602.841 63.3613 602.577 58.3132 602.406C57.57 605.507 58.6979 608.416 62.7882 608.416C99.2183 608.416 138.269 610.243 138.799 605.757Z" fill="white"/>
<path d="M186.727 386.93C186.727 386.93 159.544 394.113 137.133 400.336C114.719 406.561 104.706 418.051 108.043 437.68C111.382 457.311 178.465 542.636 183.71 545.511C188.956 548.383 212.168 534.638 214.707 524.443C215.183 522.527 163.359 428.104 163.359 428.104C163.359 428.104 226.781 418.051 237.272 410.871C247.765 403.688 245.38 382.142 245.38 382.142C245.38 382.142 196.236 382.675 186.727 386.93Z" fill="#6B4E4E"/>
<path d="M206.208 522.271C198.771 510.254 193.729 502.057 186.008 490.223C184.11 487.316 182.199 484.417 180.285 481.52C180.78 479.879 181.274 478.236 181.774 476.598C182.754 473.378 183.752 470.161 184.752 466.947C181.365 460.767 178.099 454.824 175.183 449.528C172.524 455.725 169.973 461.97 167.504 468.248C164.165 476.742 160.976 485.293 157.878 493.876C156.153 498.658 154.456 503.458 152.775 508.256C157.943 515.125 162.977 521.641 167.516 527.382C169.649 518.905 171.919 510.464 174.292 502.047C176.098 495.641 177.963 489.255 179.874 482.882C187.194 493.97 191.856 501.413 198.927 512.663C201.051 516.042 203.163 519.429 205.265 522.824C205.635 523.422 206.581 522.871 206.208 522.271Z" fill="#493333"/>
<path d="M272.443 393.627C272.443 393.627 272.56 415.018 267.792 428.104C263.023 441.191 248.399 442.787 228.373 443.106C208.344 443.425 184.819 443.425 184.819 443.425C184.819 443.425 148.993 563.07 144.483 575.139C143.053 578.97 104.194 573.308 105.623 564.688C106.5 559.406 129.724 446.052 143.076 427.858C156.426 409.665 214.383 405.603 224.874 402.73C235.367 399.858 228.691 376.397 228.691 376.397L272.443 393.627Z" fill="#6B4E4E"/>
<path d="M270.637 357.618C258.866 358.551 252.202 358.972 240.401 359.348C224.801 359.848 207.077 359.858 191.469 359.873C191.256 361.818 191.617 365.901 191.617 367.665C191.617 375.651 190.333 378.17 190.333 380.03C190.333 384.151 193.115 385.401 193.115 385.401C193.115 385.401 203.546 385.192 215.782 385.249C217.293 385.627 227.223 388.223 240.549 394.485C255.037 401.293 270.452 410.58 271.07 413.676C271.686 416.77 276.62 404.389 275.385 393.867C274.606 387.206 270.173 370.566 270.637 357.618Z" fill="#F4B558"/>
<path d="M271.4 414.16C271.25 414.16 271.137 414.01 271.072 413.686C271.07 413.684 271.07 413.68 271.07 413.676C270.452 410.58 255.037 401.293 240.549 394.485C237.023 392.828 233.737 391.429 230.78 390.258C222.559 387.003 216.894 385.527 215.782 385.249C214.292 385.243 212.83 385.238 211.408 385.238C201.16 385.238 193.115 385.401 193.115 385.401C193.115 385.401 190.333 384.151 190.333 380.03C190.333 378.17 191.617 375.651 191.617 367.665C191.617 366.303 191.402 363.563 191.402 361.487C191.402 360.873 191.42 360.318 191.469 359.873C207.077 359.858 224.801 359.848 240.401 359.348C252.202 358.972 258.866 358.551 270.637 357.618C270.614 358.265 270.602 358.917 270.602 359.58C270.604 372.199 274.644 387.538 275.385 393.867C275.521 395.023 275.582 396.202 275.584 397.382C275.586 405.784 272.51 414.16 271.4 414.16Z" fill="#E6A84E"/>
<path d="M184.819 443.425C184.819 443.425 201.634 438.753 221.962 436.289C242.288 433.825 270.787 435.344 270.787 435.344C270.787 435.344 252.803 451.419 226.518 453.883C200.233 456.345 184.819 443.425 184.819 443.425Z" fill="#E74854"/>
<path d="M300.791 438.294H241.684C239.927 438.294 239.925 441.034 241.684 441.034H300.791C302.549 441.034 302.555 438.294 300.791 438.294Z" fill="#AB2B30"/>
<path d="M235.43 439.068C228.46 441.441 222.995 447.369 220.937 454.44C220.352 456.453 220.06 458.563 220.077 460.657C220.093 462.42 222.822 462.424 222.808 460.657C222.756 454.229 226.099 447.91 231.323 444.208C232.811 443.155 234.427 442.299 236.154 441.711C237.809 441.148 237.098 438.501 235.43 439.068Z" fill="#AB2B30"/>
<path d="M186.672 536.714C186.672 536.714 181.095 543.433 183.884 546.795C186.672 550.152 200.334 545.114 202.286 540.633C204.238 536.157 186.672 536.714 186.672 536.714Z" fill="#493333"/>
<path d="M186.672 536.714C186.672 536.714 193.085 545.952 195.247 550.715C196.432 553.317 190.847 577.081 189.393 591.024C188.5 599.578 180.322 603.998 180.472 605.299C180.818 608.355 189.861 613.013 202.33 600.926C203.823 599.481 205.433 597.83 207.164 595.958C223.353 578.429 242.501 552.764 239.301 549.591C237.847 548.147 225.919 539.233 218.949 531.676C217.843 530.479 214.508 524.103 212.044 523.276C207.502 521.757 198.959 526.217 193.338 530.359C188.859 533.664 186.672 536.714 186.672 536.714Z" fill="#E5936F"/>
<path d="M239.301 549.591C237.847 548.147 225.919 539.232 218.949 531.676C218.791 531.505 218.586 531.222 218.345 530.875C213.012 532.54 207.875 534.902 203.304 538.098C199.508 540.753 196.124 544.13 193.939 548.163C194.454 549.09 194.905 549.955 195.247 550.715C196.432 553.317 190.847 577.081 189.393 591.023C188.5 599.578 180.322 603.998 180.472 605.299C180.818 608.355 189.861 613.012 202.33 600.926C203.823 599.481 205.433 597.83 207.164 595.957C223.353 578.429 242.501 552.764 239.301 549.591Z" fill="white"/>
<path d="M239.301 549.591C238.026 548.326 228.695 541.314 221.715 534.508C220.992 536.923 219.996 539.832 218.688 542.792C215.476 550.042 204.511 563.47 201.302 562.663C198.092 561.858 198.36 558.099 197.556 554.336C197.074 552.073 196.104 551.853 195.411 552.04C195.387 557.828 190.706 578.433 189.393 591.023C188.5 599.578 180.322 603.998 180.472 605.299C180.818 608.355 189.861 613.012 202.33 600.926C203.823 599.481 205.433 597.83 207.164 595.957C223.353 578.429 242.501 552.764 239.301 549.591Z" fill="#E74854"/>
<path d="M239.301 549.591C238.71 549.007 236.379 547.176 233.354 544.708C230.568 550.376 225.607 559.713 218.457 570.309C206.747 587.667 195.873 600.261 189.181 602.78C185.584 604.132 182.563 604.758 180.526 605.049C180.484 605.143 180.464 605.226 180.472 605.299C180.818 608.355 189.861 613.012 202.33 600.926C203.823 599.481 205.433 597.83 207.164 595.958C223.353 578.429 242.501 552.764 239.301 549.591Z" fill="white"/>
<path d="M188.172 430.656C186.959 435.594 185.747 440.536 184.532 445.477C184.281 446.503 185.86 446.94 186.111 445.914C187.326 440.971 188.539 436.033 189.752 431.093C190.003 430.064 188.425 429.627 188.172 430.656Z" fill="#493333"/>
<path d="M207.148 390.439C197.813 393.456 188.555 396.711 179.386 400.204C170.23 403.694 161.136 407.386 152.184 411.377C150.052 412.328 147.96 413.363 146.087 414.774C144.358 416.079 142.853 417.633 141.592 419.399C138.913 423.15 137.617 427.718 136.226 432.059C133.211 441.453 130.108 450.84 127.82 460.439C126.441 466.227 124.967 471.78 123.596 476.777C123.173 478.32 125.273 478.661 125.518 477.903C126.599 474.567 127.666 469.488 128.847 465.038C131.354 455.585 134.071 446.19 136.995 436.859C137.708 434.584 138.431 432.311 139.17 430.044C139.856 427.942 140.561 425.834 141.525 423.839C143.469 419.82 146.457 416.722 150.4 414.65C152.494 413.552 154.691 412.65 156.855 411.712C159.077 410.753 161.304 409.805 163.538 408.872C167.996 407.01 172.482 405.207 176.989 403.46C186.014 399.964 195.128 396.697 204.317 393.665C205.447 393.293 206.575 392.923 207.705 392.559C209.037 392.128 208.49 390.004 207.148 390.439Z" fill="#F9DCC6"/>
<path d="M250.667 401.521C247.042 401.789 243.604 403.153 241.032 405.658C238.313 408.307 236.472 411.712 235.142 415.227C234.253 417.573 236.29 418.551 237.264 415.973C239.605 409.779 243.91 403.42 251.341 403.708C253.641 403.796 253.554 401.307 250.667 401.521Z" fill="#493333"/>
<path d="M165.829 607.729C165.443 609.156 160.787 609.217 161.12 607.064C161.452 604.909 178.491 483.002 178.491 483.002C179.315 476.382 184.335 463.794 197.412 463.794V468.571C185.283 468.571 183.286 483.02 183.205 483.634C183.205 483.634 166.218 606.297 165.829 607.729Z" fill="#333333"/>
<path d="M238.224 258.942C238.224 258.942 259.348 268.78 269.691 275.657C270.57 276.241 278.179 281.388 278.886 281.921C287.868 288.738 283.509 315.136 281.265 327.318C279.844 335.009 279.637 352.794 269.778 352.794C253.718 352.794 203.572 353.402 203.572 353.402L189.632 341.082L188.051 323.852C188.051 323.852 173.723 348.964 167.53 350.769C160.433 352.838 151.155 354.778 147.96 340.142C144.764 325.507 144.017 292.074 144.017 292.074C144.017 292.074 163.138 287.211 164.137 288.614C165.135 290.019 166.733 299.643 167.53 301.247C168.33 302.851 174.567 284.46 176.964 281.053C179.36 277.644 182.44 276.147 189.146 273.033C196.345 269.686 208.126 262.551 208.126 262.551C208.126 262.551 209.029 257.586 209.922 257.137C210.987 256.6 232.109 250.588 234.524 252.016C235.521 252.603 238.224 258.942 238.224 258.942Z" fill="#F4B558"/>
<path d="M233.133 211.959C232.149 209.444 230.805 208.261 229.622 207.72C228.176 207.06 227.231 205.667 227.042 204.085C226.866 202.605 226.072 201.782 224.702 200.774C223.065 199.568 221.115 199.464 219.352 199.784C217.462 200.123 216.225 201.127 215.318 199.428C214.844 198.541 214.184 196.425 211.155 195.775C208.425 195.187 207.142 196.055 205.886 196.669C204.118 197.531 202.737 196.632 200.672 195.772C199.734 195.382 196.861 194.915 195.622 194.976C191.637 195.177 185.321 197.759 185.123 207.958C185.084 209.886 185.283 211.66 185.617 213.287C183.821 208.721 183.395 203.758 185.566 199.021C186.008 198.058 184.469 197.492 184.029 198.45C182.199 202.445 182.059 207.078 183.181 211.292C184.394 215.844 186.933 219.89 189.974 223.43C190.136 223.619 190.331 223.702 190.523 223.712C190.637 223.848 190.742 223.97 190.825 224.064C190.985 224.245 191.155 224.407 191.341 224.56C193.463 226.298 208.982 238.868 218.989 242.961C229.746 247.362 228.95 244.162 232.137 237.961C235.324 231.761 235.324 217.56 233.133 211.959Z" fill="#4A3333"/>
<path d="M211.325 250.078C211.325 250.078 212.852 259.723 213.409 262.148C213.966 264.575 214.338 283.423 215.081 281.931C215.824 280.437 219.542 263.827 219.542 263.827L232.593 257.478C232.593 257.478 230.76 253.811 229.644 250.078C228.529 246.345 226.696 236.546 226.696 236.546L211.325 250.078Z" fill="#E5936F"/>
<path d="M218.234 256.608C222.253 254.352 225.163 250.139 225.921 245.581C226.374 242.859 226.249 240.062 225.844 237.297L211.325 250.078C211.325 250.078 212.078 254.837 212.72 258.511C214.658 258.369 216.58 257.537 218.234 256.608Z" fill="#1A1A1A"/>
<path d="M217.126 258.228C217.126 258.228 220.844 268.493 222.33 269.054C223.819 269.613 237.201 259.91 236.458 258.79C235.715 257.669 233.147 252.101 232.218 252.101C231.289 252.101 217.126 258.228 217.126 258.228Z" fill="#F4B558"/>
<path d="M203.483 338.392C203.483 338.392 201.348 335.497 198.582 336.042C196.027 336.546 196.586 341.055 196.784 341.657C196.985 342.259 203.483 338.392 203.483 338.392Z" fill="#1A1A1A"/>
<path d="M203.483 338.392C203.483 338.392 192.815 338.738 191.325 337.93C189.835 337.125 177.791 326.645 176.531 325.84C175.268 325.035 164.029 324.574 161.849 325.724C159.67 326.877 153.729 329.628 152.236 330.203C150.746 330.78 151.497 333.403 153.905 333.255C153.905 333.255 153.508 335.487 155.573 335.487C157.637 335.487 161.162 333.671 162.308 332.864C163.456 332.059 166.093 331.022 166.781 331.482C167.47 331.943 172.516 336.434 172.516 336.434C172.516 336.434 163.799 334.361 162.997 335.052C162.193 335.743 162.922 338.059 166.133 339.095C169.345 340.132 171.483 339.888 173.204 341.041C174.925 342.192 177.791 344.955 181.118 347.258C184.442 349.561 186.508 351.519 192.815 352.21C196.709 352.635 201.128 352.448 203.94 352.241C205.69 352.113 207.113 350.787 207.377 349.045C207.998 344.952 203.711 338.622 203.483 338.392Z" fill="#E5936F"/>
<path d="M179.253 344.957C177.218 344.272 175.972 342.289 174.275 341.078C172.261 339.636 170.145 339.24 167.814 338.75C166.662 338.508 165.645 338.181 164.576 337.644C163.762 337.235 163.545 336.796 163.464 336.192C163.392 335.635 164.12 335.568 164.726 335.696C167.557 336.286 170.386 336.875 173.216 337.465C173.953 337.62 174.267 336.485 173.528 336.331L173.401 336.304C173.37 336.247 173.332 336.188 173.271 336.137C172.117 335.162 170.961 334.188 169.806 333.212C169.229 332.724 168.652 332.236 168.075 331.748C167.662 331.401 167.219 330.803 166.637 330.866C165.91 330.945 165.145 331.254 164.438 331.437C163.703 331.628 162.97 331.819 162.237 332.01C160.889 332.36 160.694 332.352 159.291 332.362C158.637 332.368 155.523 332.008 156.742 330.817C157.161 330.406 157.764 330.209 158.301 330.006C159.028 329.729 159.761 329.473 160.5 329.237C161.893 328.79 162.132 328.79 163.56 328.479C164.951 328.178 166.556 327.709 167.982 327.971C170.485 328.434 172.139 330.821 174.658 331.329C175.395 331.478 175.711 330.343 174.97 330.193C172.801 329.756 171.289 327.944 169.278 327.135C168.097 326.662 166.903 326.696 165.665 326.887C164.268 327.105 162.883 327.404 161.516 327.755C160.144 328.111 159.963 328.15 158.631 328.632C157.619 328.998 156.444 329.333 155.721 330.193C155.124 330.902 155.11 331.874 155.8 332.535C156.582 333.281 157.886 333.49 158.918 333.533C160.366 333.594 160.636 333.637 162.029 333.281C163.572 332.887 165.111 332.48 166.65 332.08C168.126 333.326 169.602 334.572 171.078 335.818L165.605 334.678C164.687 334.487 163.493 334.021 162.673 334.706C161.972 335.29 162.175 336.048 162.501 336.863C163.272 338.784 165.649 339.496 167.502 339.886C169.723 340.352 171.764 340.718 173.682 342.094C175.5 343.397 176.742 345.353 178.941 346.093C179.658 346.335 179.965 345.199 179.253 344.957Z" fill="#DA8260"/>
<path d="M181.194 335.241C181.391 334.688 181.332 334.151 181.081 333.631C180.781 333.011 180.459 332.584 180.427 331.864C180.401 331.25 180.399 330.654 180.214 330.063C179.868 328.947 179.125 328.024 178.139 327.416C177.493 327.017 176.904 328.036 177.548 328.432C178.402 328.959 179.018 329.815 179.194 330.813C179.289 331.35 179.228 331.901 179.303 332.439C179.38 332.996 179.615 333.431 179.894 333.909C180.237 334.495 180.101 334.83 179.828 335.414C179.609 335.875 179.483 336.333 179.435 336.841C179.338 337.92 179.712 339.136 179.2 340.142C178.858 340.817 179.868 341.413 180.212 340.738C180.804 339.575 180.544 338.384 180.591 337.138C180.617 336.412 180.958 335.902 181.194 335.241Z" fill="#DA8260"/>
<path d="M148.678 294.853C148.678 294.853 144.896 294.447 144.017 292.074C142.863 288.964 151.355 285.207 152.753 285.607C154.152 286.008 148.678 294.853 148.678 294.853Z" fill="#1A1A1A"/>
<path d="M164.465 253.429C164.465 253.429 167.267 253.941 167.865 258.47C168.46 262.998 166.901 266.267 166.437 268.398C165.971 270.528 163.116 278.884 163.116 281.348C163.116 283.812 164.137 288.348 164.137 288.614C164.137 293.528 151.331 294.853 148.679 294.853C146.66 287.744 144.432 278.87 142.31 276.271C140.188 273.675 164.465 253.429 164.465 253.429Z" fill="#E5936F"/>
<path d="M143.201 269.164C143.114 269.51 138.125 270.201 137.695 268.56C137.264 266.92 137.436 260.182 138.384 259.406C139.329 258.627 142.942 258.8 142.942 258.8C142.942 258.8 143.286 268.818 143.201 269.164ZM161.695 247.486C161.518 247.051 144.068 247.177 143.284 247.789C142.503 248.399 142.942 254.463 142.942 254.463C142.942 254.463 143.029 255.6 142.942 256.21C142.855 256.82 138.933 256.08 137.28 257.474C135.63 258.871 135.108 268.906 136.673 270.565C138.238 272.224 143.713 271.787 143.713 271.787C143.713 271.787 144.147 277.888 144.843 278.158C146.202 278.685 158.815 278.965 160.747 277.888C161.522 277.455 161.95 270.178 162.211 263.897C162.472 257.612 162.64 249.818 161.695 247.486Z" fill="#E74854"/>
<path d="M141.909 276.074C141.909 276.074 140.018 274.519 140.018 272.533C140.018 270.546 145.437 268.733 146.642 269.249C147.846 269.768 147.587 271.41 146.555 272.445C145.522 273.482 144.06 274.431 144.06 274.431L144.147 275.814C144.147 275.814 143.114 276.763 141.909 276.074Z" fill="#E5936F"/>
<path d="M143.201 269.164C143.201 269.164 147.484 267.615 148.081 265.484C148.679 263.352 146.887 262.421 146.887 262.421C146.887 262.421 148.545 261.221 148.215 258.956C147.883 256.692 144.301 257.226 142.112 258.357C139.923 259.489 137.933 262.353 137.933 263.419C137.933 264.484 139.192 265.151 138.994 265.883C138.795 266.615 139.06 269.412 140.32 269.611C141.581 269.813 143.201 269.164 143.201 269.164Z" fill="#E5936F"/>
<path d="M140.652 256.559C140.652 256.559 141.978 256.759 143.307 256.293C144.631 255.827 146.82 254.628 146.49 252.43C146.158 250.233 143.106 250.432 141.448 251.564C139.789 252.697 139.725 255.494 140.652 256.559Z" fill="#E5936F"/>
<path d="M163.072 257.824C163.072 257.824 158.959 257.692 157.501 255.094C156.041 252.497 157.035 249.434 158.627 249.899C160.221 250.365 161.413 251.631 163.535 252.565C165.659 253.496 164.864 256.425 163.072 257.824Z" fill="#E5936F"/>
<path d="M230.88 222.187C227.565 217.892 223.264 223.238 222.215 224.684C222.233 224.977 219.281 226.991 218.742 226.113C218.22 225.261 217.363 221.864 216.958 221.165C216.442 221.181 214.804 220.018 213.937 219.079C213.403 218.497 211.795 216.133 211.795 216.133C211.795 216.133 211.046 216.59 210.705 216.706C210.021 216.938 209.361 217.237 208.693 217.513C207.283 218.095 205.868 218.477 204.351 218.054C202.833 217.629 201.682 216.544 200.358 215.753C199.176 215.049 197.793 214.759 196.426 214.775C193.727 214.808 191.353 216.21 190.248 218.713C190.217 218.782 190.179 218.843 190.132 218.9C189.881 221.002 189.776 223.074 190.027 224.546C190.485 227.221 191.181 248.137 197.159 253.544C200.318 256.403 207.915 255.866 211.455 255.01C222.351 252.377 227.132 243.989 227.551 235.418C227.551 235.418 236.462 229.425 230.88 222.187Z" fill="#E5936F"/>
<path d="M218.742 226.113C219.19 234.318 218.297 243.503 216.086 244.687C213.877 245.87 212.844 244.54 211.224 242.469C209.602 240.397 204.445 241.729 198.552 242.32C193.565 242.82 193.008 244.485 192.955 244.987C193.943 248.665 195.296 251.859 197.159 253.544C200.318 256.403 207.915 255.866 211.455 255.01C215.15 254.118 218.141 252.56 220.498 250.562C220.551 250.428 220.607 250.3 220.656 250.161C223.454 242.023 222.215 224.684 222.215 224.684C222.233 224.977 219.281 226.991 218.742 226.113Z" fill="#4A3333"/>
<path d="M194.887 232.07C194.854 231.771 194.763 231.478 194.62 231.222C194.371 230.777 193.925 230.342 193.374 230.401C193.259 230.413 193.15 230.443 193.044 230.484C192.957 230.504 192.872 230.535 192.789 230.578C192.281 230.836 192.064 231.423 192.084 231.966C192.09 232.151 192.115 232.338 192.153 232.523C192.186 232.71 192.232 232.897 192.303 233.07C192.374 233.239 192.463 233.407 192.574 233.558L192.619 233.629C192.886 233.977 193.291 234.143 193.682 234.076L193.765 234.064L193.773 234.062C194.156 233.985 194.486 233.729 194.69 233.375C194.857 233.086 194.927 232.759 194.921 232.432C194.923 232.31 194.911 232.19 194.887 232.07Z" fill="#1A1A1A"/>
<path d="M209.747 229.097C209.596 228.906 209.383 228.758 209.148 228.66L209.118 228.642C208.806 228.481 208.48 228.425 208.134 228.481C207.791 228.538 207.502 228.768 207.309 229.049C207.095 229.358 207.018 229.736 207.032 230.112C207.028 230.173 207.016 230.236 207.014 230.297C207.004 230.553 207.03 230.826 207.105 231.072C207.121 231.128 207.143 231.181 207.166 231.234C207.247 231.545 207.399 231.83 207.658 232.045C208.182 232.484 208.952 232.594 209.49 232.112C209.729 231.897 209.873 231.582 209.946 231.271C209.999 231.049 210.025 230.815 210.037 230.582C210.16 230.071 210.09 229.531 209.747 229.097Z" fill="#1A1A1A"/>
<path d="M212.694 224.659C210.947 223.907 209.134 223.373 207.249 223.108C206.828 223.049 206.348 223.21 206.241 223.682C206.154 224.07 206.36 224.629 206.814 224.694C208.537 224.936 210.319 225.414 211.868 226.081C212.261 226.249 212.765 226.211 212.988 225.786C213.174 225.432 213.115 224.84 212.694 224.659Z" fill="#4A3333"/>
<path d="M193.14 225.676C192.889 225.286 192.427 225.168 192.02 225.379C191.117 225.849 190.28 226.459 189.549 227.166C189.24 227.465 189.227 228.032 189.549 228.329C189.882 228.634 190.378 228.648 190.708 228.329C190.941 228.105 191.184 227.896 191.435 227.697C191.88 227.359 192.35 227.056 192.846 226.8C193.227 226.603 193.37 226.034 193.14 225.676Z" fill="#4A3333"/>
<path d="M202.369 239.96L202.239 239.795C202.138 239.692 202.019 239.623 201.879 239.582C201.488 239.525 201.099 239.466 200.708 239.405C200.599 239.372 200.49 239.366 200.382 239.391C200.273 239.397 200.172 239.429 200.077 239.488C199.907 239.588 199.747 239.785 199.702 239.98C199.653 240.192 199.664 240.428 199.783 240.615L199.911 240.781C200.014 240.883 200.135 240.952 200.273 240.993C200.664 241.052 201.053 241.111 201.444 241.168C201.553 241.202 201.66 241.208 201.77 241.184C201.879 241.178 201.98 241.145 202.075 241.086C202.243 240.987 202.407 240.792 202.452 240.594C202.498 240.383 202.488 240.147 202.369 239.96Z" fill="#DA6E60"/>
<path d="M198.256 244.827C198.256 244.827 206.166 243.296 206.945 243.546C207.725 243.794 206.451 248.271 203.649 249.161C200.848 250.052 198.256 244.827 198.256 244.827Z" fill="white"/>
<path d="M212.204 258.127C211.72 258.127 211.665 261.288 211.617 261.731L211.127 266.6C210.594 265.438 209.904 263.748 209.582 262.5C209.47 262.069 208.997 261.809 208.573 261.924C208.14 262.044 207.891 262.506 208.002 262.937C208.575 265.165 209.485 267.31 210.687 269.27C210.878 269.581 211.256 269.745 211.611 269.648C211.985 269.544 212.174 269.219 212.214 268.855C212.419 266.979 212.228 264.429 212.435 262.553C212.483 262.109 212.611 258.127 212.204 258.127Z" fill="#D59943"/>
<path d="M235.679 258.495C232.372 261.426 228.883 264.144 225.224 266.619C224.805 266.901 224.386 267.192 223.956 267.462C223.371 267.83 223.27 267.824 222.81 267.312C222.13 266.549 218.714 260.944 218.102 258.995C217.787 257.988 216.857 257.763 217.175 258.777C217.876 261.003 221.134 268.015 221.952 268.798C222.837 269.646 223.811 269.491 224.783 268.881C229.053 266.2 233.067 263 236.837 259.658C237.631 258.956 236.468 257.797 235.679 258.495Z" fill="#D59943"/>
<path d="M187.968 303.959C187.939 302.824 186.18 302.82 186.208 303.959C186.417 312.569 186.625 321.18 186.834 329.79C186.86 330.925 188.62 330.931 188.593 329.79C188.385 321.18 188.176 312.569 187.968 303.959Z" fill="#D59943"/>
<path d="M174.488 321.851C172.352 314.095 170.507 306.262 168.962 298.368C168.743 297.254 167.047 297.726 167.265 298.838C168.81 306.732 170.655 314.565 172.791 322.321C173.093 323.415 174.792 322.951 174.488 321.851Z" fill="#F9DCC6"/>
<path d="M267.5 274.255C262.995 278.231 258.777 282.519 255.104 287.307C252.975 290.08 251.054 293.005 249.391 296.081C249.033 296.748 250.043 297.344 250.404 296.677C254.954 288.26 261.409 281.185 268.545 274.911C268.205 274.694 267.856 274.474 267.5 274.255Z" fill="#D59943"/>
<path d="M180.541 277.528C180.188 277.774 179.854 278.022 179.538 278.28C180.982 283.639 182.861 288.88 185.165 293.94C186.388 296.628 187.733 299.257 189.187 301.824C189.559 302.483 190.572 301.891 190.199 301.231C185.986 293.78 182.736 285.802 180.541 277.528Z" fill="#D59943"/>
<path d="M252.267 324.346C250.26 324.685 248.253 325.027 246.247 325.368C248.12 318.005 249.995 310.641 251.868 303.278C252.149 302.176 250.452 301.706 250.171 302.808C248.231 310.436 246.289 318.064 244.349 325.69C233.852 327.475 223.355 329.26 212.858 331.043C211.951 331.197 204.353 332.488 201.64 332.949C200.526 333.139 200.998 334.842 202.108 334.653C204.671 334.218 207.233 333.781 209.796 333.346C212.753 336.198 215.58 339.514 216.57 343.596C217.181 346.123 216.969 348.921 215.77 351.2C216.408 351.194 217.064 351.186 217.736 351.175C218.716 348.799 218.88 346.05 218.358 343.537C217.503 339.414 214.855 335.942 211.937 332.982C221.798 331.307 250.388 326.448 252.735 326.049C253.85 325.86 253.376 324.157 252.267 324.346Z" fill="#D59943"/>
<path d="M166.299 296.604C164.349 300.312 160.014 302.154 156.019 302.934C152.164 303.689 148.089 303.526 144.372 302.253C144.396 302.857 144.424 303.479 144.455 304.118C147.249 304.977 150.203 305.295 153.131 305.085C157.311 304.786 161.725 303.636 165.008 300.903C165.692 300.334 166.312 299.686 166.85 298.98C166.676 298.271 166.492 297.457 166.299 296.604Z" fill="#D59943"/>
<path d="M216.563 302.76C216.211 298.879 215.838 295 215.45 291.121C215.381 290.425 214.287 290.419 214.358 291.121C215.721 304.74 215.227 300.916 216.154 314.571C216.42 318.46 216.665 322.35 216.895 326.239C216.936 326.942 218.027 326.946 217.987 326.239C217.183 312.577 217.805 316.389 216.563 302.76Z" fill="#D59943"/>
<path d="M200.148 348.636C200.148 348.636 156.272 348.685 154.786 348.612C152.283 348.488 136.335 288.124 132.346 287.372C128.357 286.621 83.985 286.621 81.9905 288.124C79.9959 289.626 98.947 351.114 100.942 352.865C102.936 354.617 197.406 352.889 198.651 352.389C199.899 351.889 200.148 348.636 200.148 348.636Z" fill="#8DA1B2"/>
<path d="M91.1552 322.091C89.6689 318.731 87.6238 316.864 87.6238 314.252C87.6238 311.64 91.3415 309.96 90.9709 304.92C90.5983 299.883 87.0669 298.388 86.3217 298.016C85.5786 297.642 86.3217 295.776 86.3217 295.776H80.6196C80.6196 295.776 81.3627 297.642 80.6196 298.016C79.8744 298.388 76.343 299.883 75.9725 304.92C75.5999 309.96 79.3176 311.64 79.3176 314.252C79.3176 316.864 77.2724 318.731 75.7862 322.091C74.2999 325.45 75.9725 351.95 75.9725 351.95C75.8165 351.795 81.2959 351.897 83.1629 351.936V351.95C83.1629 351.95 83.2763 351.948 83.4707 351.944C83.6651 351.948 83.7785 351.95 83.7785 351.95V351.936C85.6454 351.897 91.1248 351.795 90.9709 351.95C90.9709 351.95 92.6435 325.45 91.1552 322.091Z" fill="#CAD5DF"/>
<path d="M88.0124 319.723C86.9696 317.993 85.9855 316.36 85.9855 314.252C85.9855 312.687 86.7995 311.483 87.5851 310.32C88.5773 308.85 89.5149 307.464 89.3367 305.043C89.2597 304.006 89.0208 303.164 88.7009 302.471H78.2402C77.9203 303.164 77.6813 304.006 77.6064 305.043C77.4262 307.464 78.3637 308.85 79.3559 310.32C80.1436 311.483 80.9556 312.687 80.9556 314.252C80.9556 316.36 79.9715 317.993 78.9287 319.723C78.3698 320.652 77.7887 321.614 77.2824 322.758C76.4947 324.541 76.7742 337.825 77.5072 350.222H77.9101C79.6111 350.222 81.9519 350.267 83.1972 350.293L83.426 350.299L83.7439 350.293C84.9892 350.267 87.33 350.222 89.0309 350.222H89.4339C90.1669 337.825 90.4463 324.541 89.6586 322.758C89.1524 321.614 88.5733 320.652 88.0124 319.723Z" fill="#EAEEF2"/>
<path d="M79.8077 292.991C79.8077 292.991 79.7287 295.886 80.4293 296.354C81.1299 296.823 86.504 296.589 86.8159 296.12C87.1277 295.65 86.9718 291.897 86.9718 291.897C86.9718 291.897 80.0405 291.897 79.8077 292.991Z" fill="#F4B558"/>
<path d="M91.4973 341.61C91.7706 334.938 91.9549 326.887 91.4709 323.441C89.3731 323.134 83.7743 322.441 82.7659 323.645C82.7659 323.645 81.8324 341.002 83.3106 341.708C84.2623 342.159 88.4518 342.029 91.4973 341.61Z" fill="#F4B558"/>
<path d="M86.6336 300.183C86.3055 299.559 85.3619 300.112 85.6899 300.736C86.4533 302.194 86.7409 303.845 86.5627 305.479C86.5303 305.774 86.836 306.026 87.1074 306.026C87.4293 306.026 87.6217 305.774 87.6541 305.479C87.8546 303.656 87.482 301.804 86.6336 300.183Z" fill="white"/>
<path d="M88.8711 324.899C88.1117 322.364 87.0709 319.914 85.7709 317.608C85.4247 316.995 84.4811 317.545 84.8273 318.161C86.0828 320.39 87.0851 322.742 87.8181 325.192C88.0206 325.865 89.0756 325.578 88.8711 324.899Z" fill="white"/>
<path d="M341.843 609.026C341.693 608.062 339.716 567.583 336.41 525.711C334.47 501.146 332.506 481.111 330.572 466.16C327.281 440.764 324.833 436.328 324.161 435.572C319.214 430.017 290.766 423.654 269.991 419.007C242.896 412.948 232.443 410.301 230.167 406.526C225.686 399.089 225.919 378.652 225.959 376.348L231.418 376.452C231.317 382.219 231.718 398.238 234.745 403.436C237.22 405.886 256.019 410.09 271.143 413.473C300.952 420.141 322.497 425.354 328.172 431.731C330.064 433.854 335.083 439.495 341.853 525.26C345.165 567.213 347.093 607.078 347.296 608.723C347.498 610.374 341.992 609.983 341.843 609.026Z" fill="#A9B8C5"/>
<path d="M233.079 609.026C232.844 610.614 227.369 610.113 227.628 608.723C227.887 607.334 229.758 567.213 233.071 525.26C239.838 439.495 244.86 433.854 246.749 431.731C252.427 425.354 273.968 420.141 303.778 413.473C318.904 410.09 337.706 405.886 340.178 403.436C343.205 398.238 343.604 382.219 343.501 376.452L348.964 376.348C349.007 378.652 349.233 399.089 344.754 406.526C342.48 410.301 332.024 412.948 304.928 419.007C284.157 423.654 255.705 430.017 250.762 435.572C250.09 436.328 247.64 440.764 244.351 466.164C242.414 481.117 240.449 501.156 238.512 525.721C235.207 567.593 233.314 607.438 233.079 609.026Z" fill="#A9B8C5"/>
<path d="M86.2306 348.683C86.2306 348.683 82.28 347.097 82.4117 344.587C82.5433 342.076 85.3093 346.04 87.9417 346.833C90.5741 347.628 90.4424 343.001 94.6563 343.661C98.8701 344.322 96.7622 347.76 93.7349 348.551C90.7057 349.346 86.2306 348.683 86.2306 348.683Z" fill="#FFD27F"/>
<path d="M16.4605 349.421C16.4605 349.421 22.9989 350.269 25.9512 349.632C28.9056 348.998 49.5758 349.421 51.4751 349.421C53.3745 349.421 70.4586 350.057 71.5136 350.057C72.5686 350.057 61.1785 326.972 57.1712 322.313C53.1619 317.653 50.4202 324.431 49.7884 324.431C49.1546 324.431 40.7168 325.066 38.1857 325.49C35.6546 325.913 34.8102 327.607 32.9128 328.243C31.0155 328.877 18.4611 326.761 18.4611 326.761H14.14L16.4605 349.421Z" fill="#EA9F58"/>
<path d="M54.8506 322.949C54.8506 322.949 53.1619 325.702 54.0063 329.939C54.8506 334.173 61.3891 350.057 61.3891 350.057H70.0374C70.0374 350.057 57.1712 321.679 54.8506 322.949Z" fill="#1A1A1A"/>
<path d="M53.8099 346.187C51.2565 339.598 50.0436 332.549 50.2562 325.482C50.2805 324.677 49.0372 324.679 49.0129 325.482C48.7963 332.649 50.0213 339.837 52.6112 346.52C52.8967 347.26 54.0995 346.939 53.8099 346.187Z" fill="#D28B50"/>
<path d="M21.7737 352.729C20.7491 344.434 19.7225 336.141 18.6959 327.847C18.5987 327.06 17.3534 327.05 17.4526 327.847C18.4792 336.141 19.5058 344.434 20.5304 352.729C20.6276 353.516 21.873 353.526 21.7737 352.729Z" fill="#D28B50"/>
<path d="M45.9269 338.225C45.7912 337.784 45.4834 337.436 45.1777 337.101C44.801 336.69 44.4264 336.28 44.0599 335.859C43.3654 335.058 42.6951 334.234 42.0573 333.387C40.6034 331.457 39.2973 329.42 38.1411 327.298C37.7584 326.592 36.6832 327.223 37.0679 327.928C38.9308 331.348 41.1906 334.545 43.7967 337.436C44.064 337.735 44.392 338.016 44.6147 338.353C44.6552 338.414 44.8496 338.713 44.7362 338.801L44.2583 338.579C43.4362 338.148 42.6587 337.634 41.9054 337.089C40.3685 335.977 38.9227 334.728 37.2825 333.763C35.4662 332.693 33.3866 331.939 31.2524 332.161C30.8413 332.203 30.5578 332.525 30.653 332.952C30.7806 333.517 31.0944 333.984 31.4873 334.401C31.87 334.806 32.36 335.143 32.6597 335.619C32.848 335.916 33.1558 336.591 32.688 336.798C32.2081 337.014 31.5014 336.507 31.1208 336.265C28.5066 334.608 25.9046 332.933 23.2965 331.266C22.6202 330.835 21.9965 331.915 22.6688 332.346C24.2179 333.334 25.7649 334.322 27.3119 335.312C28.1138 335.824 28.9177 336.337 29.7195 336.849C30.3736 337.268 31.0215 337.745 31.7748 337.969C33.1801 338.386 34.4497 337.355 34.1055 335.869C33.9516 335.21 33.5486 334.659 33.0707 334.198C32.7954 333.929 32.4876 333.675 32.2446 333.379C36.1081 333.515 39.0969 336.751 42.1646 338.782C42.5655 339.047 42.9725 339.299 43.3937 339.528C43.8129 339.76 44.2907 340.053 44.7868 340.043C45.7062 340.024 46.1759 339.034 45.9269 338.225Z" fill="#D28B50"/>
<path d="M65.7082 336.278C64.5682 335.662 61.9337 335.485 61.9337 335.485C61.9337 335.485 61.5834 334.163 60.2673 332.401C59.1738 330.937 55.2374 329.839 53.9333 329.508C53.9576 329.65 53.9779 329.79 54.0062 329.939C54.4538 332.179 56.4908 337.676 58.3132 342.358C58.38 342.358 58.4448 342.365 58.5117 342.358C60.3543 342.184 67.3767 342.184 67.5529 340.155C67.727 338.13 66.8502 336.896 65.7082 336.278Z" fill="#FFD27F"/>
<path d="M71.1511 341.124C71.1511 341.124 74.3099 341.301 75.8894 342.448C77.4708 343.592 77.734 344.914 77.734 344.914C77.734 344.914 80.7188 344.65 81.7717 346.235C82.8247 347.823 82.8247 349.055 82.122 349.232C81.4194 349.409 72.204 349.937 71.1511 349.586C70.0981 349.232 71.1511 341.124 71.1511 341.124Z" fill="#FFD27F"/>
<path d="M70.5355 339.628C68.1643 337.629 59.4511 339.116 57.493 340.23C59.113 344.471 60.7714 348.549 61.2492 349.716C63.5414 349.893 72.3599 350.517 72.8175 349.673C73.344 348.703 73.2569 341.917 70.5355 339.628Z" fill="#FFD27F"/>
<path d="M77.6976 346.506C77.1529 348.754 74.3889 348.632 72.7204 347.892C72.281 347.697 71.9226 347.451 71.5783 347.115C71.4042 346.945 71.2321 346.77 71.0458 346.611C71.3333 346.245 71.6532 345.906 72.0036 345.605C72.3579 345.302 72.775 344.965 73.2327 344.845C73.7288 344.717 74.3039 344.891 74.7919 345.007C75.3426 345.137 75.8691 345.357 76.4422 345.267C76.6649 345.233 76.7844 344.954 76.7317 344.755C76.6689 344.517 76.4422 344.43 76.2235 344.464C75.942 344.509 75.6342 344.363 75.3669 344.294C75.0794 344.216 74.7919 344.149 74.5023 344.094C73.9009 343.977 73.3157 343.901 72.7366 344.141C72.3113 344.318 71.9165 344.578 71.552 344.883C71.0235 344.513 70.7036 343.855 70.7866 343.206C70.8716 342.537 71.3779 341.948 72.0137 341.746C72.5199 341.586 72.3032 340.781 71.793 340.943C70.8129 341.256 70.088 342.122 69.9645 343.147C69.8592 344.027 70.2621 344.914 70.9385 345.465C70.7258 345.688 70.5274 345.924 70.3452 346.16C69.6709 345.888 68.9217 346.02 68.3506 346.479C67.8788 345.223 67.0952 344.092 66.0321 343.249C65.8418 343.098 65.6454 342.96 65.4449 342.832C65.7446 342.747 66.0402 342.643 66.3075 342.478C66.7206 342.224 67.0122 341.854 67.1904 341.405C67.5589 340.472 67.2896 339.463 67.0122 338.548C66.8562 338.036 66.0564 338.254 66.2123 338.768C66.4371 339.508 66.6922 340.307 66.431 341.071C66.1961 341.767 65.5137 341.962 64.8739 342.122C64.4243 341.417 63.829 340.498 62.9826 340.274C62.1382 340.053 61.2513 340.642 60.4677 340.134C59.7347 339.658 59.5848 338.717 59.8622 337.932C60.168 337.076 60.9577 336.489 61.6482 335.954C61.717 335.899 61.7575 335.838 61.7758 335.775C61.9175 335.501 61.6988 335.066 61.306 335.163C60.8443 335.279 60.4576 335.599 60.0789 335.875C59.925 335.987 59.7752 336.103 59.6253 336.225C58.1066 335.784 56.9383 334.336 56.9342 332.72C56.9322 332.185 56.104 332.183 56.104 332.72C56.1101 334.513 57.3068 336.212 58.951 336.875C58.378 337.556 58.0256 338.457 58.2464 339.343C58.2666 339.551 58.3091 339.752 58.3699 339.945C58.4205 340.226 58.5015 340.5 58.6129 340.758C58.8194 341.238 59.1454 341.691 59.6152 341.939C59.6759 341.972 59.7367 341.996 59.7974 342.019C59.4815 342.185 59.2021 342.397 58.9368 342.651C58.7789 342.801 58.7728 343.09 58.9368 343.239C59.1049 343.395 59.354 343.401 59.522 343.239C59.601 343.165 59.68 343.088 59.763 343.019L59.8055 342.982L59.8177 342.974L59.9351 342.893C60.0141 342.842 60.0951 342.793 60.1781 342.751L60.3057 342.688L60.332 342.675L60.3543 342.667C60.5244 342.6 60.7005 342.549 60.8808 342.517L60.982 342.503L61.0873 342.492C61.1804 342.486 61.2756 342.484 61.3688 342.488L61.4903 342.466C62.9502 342.492 64.4081 342.993 65.5441 343.916C66.919 345.034 67.8161 346.703 67.9922 348.469C68.0449 348.998 68.8731 349.002 68.8204 348.469C68.7941 348.189 68.7414 347.912 68.6807 347.638C68.7738 347.595 68.8488 347.51 68.8791 347.378C68.9399 347.105 69.4238 347.215 69.6142 347.26C69.9746 347.343 70.3107 347.51 70.6064 347.734C71.2098 348.191 71.6026 348.866 71.8942 349.553C72.038 349.895 72.5685 349.773 72.6515 349.453C72.7082 349.236 72.8216 349.081 72.9958 348.941L73.016 348.913C73.3987 349.039 73.7875 349.128 74.1641 349.183C75.9663 349.449 78.0297 348.659 78.4974 346.725C78.623 346.205 77.8252 345.983 77.6976 346.506Z" fill="#EDB061"/>
<path d="M94.0467 343.328C91.6533 342.736 90.0314 344.851 88.6585 346.441C88.2717 346.888 87.8627 347.339 87.3787 347.679C86.7713 348.104 86.1638 348.099 85.5178 347.766C84.4993 347.24 83.7238 346.298 83.339 345.225C83.1588 344.725 82.357 344.94 82.5392 345.446C83.2358 347.388 85.6373 349.891 87.7959 348.396C89.6385 347.124 91.1086 343.46 93.826 344.131C94.3444 344.259 94.5651 343.456 94.0467 343.328Z" fill="#EDB061"/>
<path d="M103.683 348.947C103.683 348.947 99.9188 349.394 99.2182 345.743C98.5155 342.092 101.77 341.13 103.365 342.283C104.961 343.436 104.833 345.487 105.279 345.936C105.726 346.384 107.002 345.615 107.64 346.127C108.28 346.64 108.28 348.626 103.683 348.947Z" fill="#FFD27F"/>
<path d="M107.235 346.831C107.237 347.073 107.057 347.244 106.878 347.384C106.708 347.516 106.37 347.803 106.143 347.756C105.908 347.707 105.759 347.402 105.686 347.199C105.57 346.869 105.524 346.522 105.477 346.178C105.293 344.775 104.827 343.523 103.952 342.407C103.811 342.23 103.511 342.263 103.365 342.407C103.189 342.58 103.228 342.82 103.365 342.995C103.871 343.639 104.242 344.389 104.457 345.18C104.671 345.967 104.637 346.821 104.949 347.581C105.248 348.313 105.947 348.825 106.729 348.455C107.364 348.154 108.067 347.599 108.065 346.831C108.061 346.296 107.233 346.294 107.235 346.831Z" fill="#EDB061"/>
<path d="M348.596 352.489H8.39526C6.26101 352.489 4.53174 354.225 4.53174 356.368V373.404C4.53174 375.547 6.26101 377.283 8.39526 377.283H348.596C350.732 377.283 352.459 375.547 352.459 373.404V356.368C352.459 354.225 350.732 352.489 348.596 352.489Z" fill="white"/>
<path d="M223.288 356.057V373.24C223.288 375.004 226.018 375.006 226.018 373.24V356.057C226.018 354.294 223.288 354.292 223.288 356.057Z" fill="#E6EBF0"/>
<path d="M11.0154 352.424C11.0154 352.424 9.49469 351.251 9.49469 349.506C9.49469 347.762 127.46 348.715 128.764 349.37C130.068 350.023 127.867 352.46 127.867 352.46L11.0154 352.424Z" fill="#E6EBF0"/>
<path d="M101.482 349.212C101.209 349.149 100.875 349.293 100.81 349.594C100.682 350.204 100.553 350.814 100.423 351.423C100.362 351.702 100.504 352.029 100.804 352.096C101.079 352.159 101.411 352.015 101.476 351.714C101.606 351.104 101.735 350.494 101.865 349.887C101.924 349.606 101.782 349.281 101.482 349.212Z" fill="#CAD5DF"/>
<path d="M353.874 399.606C355.865 401.334 357.953 402.934 360.129 404.398C358.056 406.048 356.098 407.835 354.31 409.777C354.154 406.388 354.014 402.997 353.874 399.606ZM353.65 393.83C353.885 393.787 354.111 393.743 354.344 393.702C354.004 393.846 353.775 394.131 353.672 394.462C353.666 394.251 353.656 394.039 353.65 393.83ZM351.376 524.062C351.011 514.391 350.655 429.475 350.296 419.802L350.327 419.749C350.509 419.415 350.691 419.086 350.878 418.759C351.297 418.657 351.722 418.557 352.141 418.452C352.38 423.207 352.639 427.96 352.915 432.713C353.22 438.062 353.556 518.655 353.909 523.999C352.998 523.973 352.117 524.005 351.376 524.062ZM349.798 406.548C350.177 406.544 350.545 406.563 350.908 406.607C351.104 406.849 351.353 406.975 351.613 407.01C351.696 408.897 351.775 410.783 351.862 412.67C351.256 413.455 350.675 414.262 350.12 415.093C350.011 412.245 349.908 409.397 349.798 406.548ZM349.416 396.225C349.701 396.302 350.017 396.294 350.296 396.19C350.349 396.282 350.416 396.371 350.499 396.457C350.732 396.688 350.971 396.914 351.204 397.144C351.266 398.878 351.333 400.614 351.406 402.35C350.811 401.387 350.197 400.443 349.539 399.541L349.416 396.225ZM349.1 387.65C349.555 387.898 350.017 388.144 350.469 388.408C350.608 388.491 350.752 388.536 350.888 388.562C350.908 389.113 350.924 389.662 350.944 390.209C350.562 390.738 350.203 391.287 349.877 391.86C349.669 391.895 349.462 391.927 349.26 391.96L349.1 387.65ZM348.768 378.776L348.14 361.934C348.322 361.635 348.369 361.255 348.29 360.901C348.784 360.946 349.28 360.987 349.774 361.025C349.835 361.253 349.964 361.458 350.167 361.615C350.26 366.36 350.369 371.107 350.499 375.852C349.877 376.785 349.27 377.767 348.768 378.776ZM347.638 348.376L347.559 346.315C347.747 346.188 347.897 345.997 347.99 345.741C348.628 345.337 349.266 344.932 349.904 344.526C349.918 346.245 349.938 347.965 349.96 349.687C349.897 349.864 349.831 350.037 349.768 350.216C349.618 350.694 349.738 351.086 349.987 351.363C350.011 352.944 350.037 354.528 350.064 356.112C349.349 355.553 348.618 355.016 347.864 354.506L347.638 348.376ZM346.475 386.324C346.601 389.605 346.72 392.887 346.844 396.168C343.355 392.212 339.23 388.922 334.626 386.275C337.706 385.629 340.816 385.22 343.962 385.241C344.807 385.582 345.647 385.938 346.475 386.324ZM346.917 328.908L346.741 324.177C347.705 325.057 348.721 325.875 349.768 326.639C349.768 327.936 349.784 329.235 349.788 330.534C348.901 329.914 347.937 329.382 346.917 328.908ZM352.34 328.345C353.277 328.916 354.237 329.447 355.217 329.945C354.227 330.882 353.267 331.856 352.366 332.87C352.354 331.362 352.344 329.853 352.34 328.345ZM350.795 385.637C350.685 385.58 350.582 385.523 350.473 385.464L350.436 385.373C350.074 384.688 349.964 383.976 350.007 383.262C350.246 383.161 350.479 383.059 350.711 382.957C350.738 383.85 350.764 384.744 350.795 385.637ZM359.82 339.307C357.005 340.848 354.413 342.779 352.463 345.237C352.459 344.448 352.449 343.659 352.443 342.869C356.879 339.947 361.229 336.898 365.485 333.726C367.186 334.153 368.907 334.503 370.633 334.777C366.812 335.393 363.007 337.558 359.82 339.307ZM360.291 363.78C357.61 366.425 355.17 369.316 352.967 372.376C352.878 369.027 352.805 365.681 352.738 362.335C355.241 362.902 357.762 363.384 360.291 363.78ZM426.757 366.435C411.118 365.945 395.587 368.911 380.83 373.996C373.919 376.377 366.927 379.058 360.461 382.502C357.916 383.858 355.476 385.454 353.417 387.404C353.356 385.543 353.297 383.683 353.241 381.823C362.98 377.334 372.151 371.717 380.565 365.097C388.849 364.89 397.116 363.776 405.204 361.747C406.338 361.462 406.39 359.98 405.514 359.387C401.646 356.78 397.382 355.142 392.943 354.058C393.986 353.009 395.016 351.948 396.023 350.862C396.77 350.055 396.256 348.659 395.11 348.659C389.247 348.648 383.525 349.832 378.155 351.964L378.013 351.952C369.27 351.259 359.587 351.523 352.639 357.342C352.619 356.301 352.599 355.262 352.578 354.221C352.556 352.861 352.546 351.501 352.526 350.143C352.556 350.067 352.589 349.996 352.619 349.923C356.44 349.155 359.882 346.711 363.199 344.788C367.356 342.375 371.457 339.862 375.504 337.268C376.148 336.853 376.282 335.969 375.899 335.395C380.721 335.798 385.556 335.784 390.404 335.694C394.119 335.625 397.92 335.613 401.529 336.408C403.483 337.14 405.437 337.871 407.385 338.605C408.764 339.122 409.63 336.948 408.381 336.245C406.427 335.145 404.367 334.413 402.247 333.932C393.824 330.78 385.38 327.672 376.863 324.779C381.798 320.684 386.593 316.423 391.238 311.991C392.125 311.144 391.212 309.365 389.983 309.834C381.798 312.961 373.723 316.568 366.35 321.339C361.026 319.674 355.673 318.117 350.276 316.712C371.949 311.666 392.953 303.709 413.984 296.563C415.213 296.144 415.197 294.497 413.984 294.072C407.68 291.856 400.927 292.058 394.368 292.737C387.875 293.41 381.446 294.668 375.184 296.534C369.555 298.214 364.013 300.358 358.746 302.997C362.78 295.949 365.631 288.256 367.117 280.195C367.336 279.022 365.904 277.91 364.971 278.939C357.537 287.107 352.147 296.923 349.256 307.551C346.947 293.08 342.707 279.014 336.58 265.675C336.011 264.429 334.247 265.161 334.186 266.328C333.399 281.364 336.503 296.402 343.082 309.881C339.826 307.712 336.393 305.884 332.585 304.733C327.478 303.19 322.091 302.715 316.778 302.601C304.679 302.341 292.524 303.272 280.441 303.79C279.01 303.851 278.673 305.915 280.099 306.327C300.917 312.323 322.134 318.322 343.942 318.184C343.956 318.621 343.977 319.056 343.993 319.493C343.558 319.953 343.391 320.703 343.926 321.313C343.973 321.363 344.019 321.41 344.066 321.461C344.143 323.59 344.222 325.718 344.305 327.847C339.706 326.163 334.865 325.253 330.007 324.777C318.852 323.681 307.65 325.009 296.474 324.797C295.146 324.773 294.8 326.527 295.826 327.204C310.298 336.725 327.581 341.23 344.76 340.216C344.92 344.426 345.076 348.638 345.232 352.849C341.77 350.844 338.021 349.338 334.097 348.429C325.866 346.518 317.552 347.715 309.329 349.047C307.992 349.262 308.225 351.184 309.329 351.537C319.566 354.813 329.883 358.047 340.467 359.852C328.172 360.149 315.99 362.546 304.483 366.98C303.108 367.509 303.353 369.371 304.825 369.517C318.769 370.892 332.807 368.566 345.605 362.91C345.854 369.538 346.099 376.167 346.346 382.795C345.767 382.758 345.192 382.734 344.615 382.724C336.57 379.56 327.79 378.401 319.174 379.455C319.074 379.467 318.977 379.481 318.884 379.493C308.806 375.694 298.671 372.073 289.061 367.147C287.745 366.474 286.532 368.062 287.5 369.176C292.222 374.588 297.406 379.579 302.984 384.08L302.901 384.112C297.282 386.44 291.56 388.853 285.354 388.272C283.882 388.136 283.645 390.433 285.011 390.809C290.444 392.301 295.97 393.787 301.648 393.789C305.852 393.791 310.019 393.07 314.099 392.057L314.229 392.139C319.319 395.361 324.653 398.12 330.369 400.043C335.839 401.881 341.494 403.06 347.14 404.18L347.146 404.314C346.202 404.503 345.269 404.741 344.345 404.957C341.032 405.727 337.742 406.593 334.492 407.581C328.142 409.507 321.915 411.912 316.021 414.967C305.37 420.489 295.857 428.257 289.165 438.31C288.429 439.41 289.855 440.707 290.922 440.077C295.92 437.131 301.672 435.97 307.069 433.99C312.129 432.138 317.043 429.873 321.735 427.222C331.137 421.912 339.639 415.059 346.864 407.024L346.957 406.9C347.052 406.88 347.146 406.862 347.243 406.843C347.549 415.079 347.854 423.317 348.16 431.554C348.373 437.298 348.585 518.281 348.798 524.026C345.973 523.869 325.544 524.089 324.793 526.612C324.793 526.612 307.852 599.294 309.776 605.09C311.611 610.624 342.972 609.827 350.39 609.737C357.803 609.827 386.992 610.624 388.828 605.09C390.75 599.294 373.81 526.612 373.81 526.612C373.421 525.317 358.056 524.63 356.507 524.29C355.812 513.871 355.217 428.206 354.692 417.781C361.059 416.034 367.273 413.8 373.348 411.224C382.27 414.613 391.926 416.047 401.522 415.211C403.031 415.081 403.197 413.237 401.865 412.676C396.738 410.509 391.813 407.683 386.884 404.871C392.809 401.84 398.619 398.581 404.374 395.235C407.271 393.547 410.153 391.838 413.036 390.124C415.409 388.713 417.934 387.477 419.542 385.145C420.06 384.391 419.38 383.088 418.426 383.203C403.819 384.966 389.44 388.802 376.023 394.914C374.541 395.591 373.064 396.306 371.602 397.062C366.346 394.946 360.85 393.551 354.895 393.6C367.077 391.362 379.076 388.022 390.979 384.657C397.272 382.878 403.519 380.91 409.527 378.308C412.58 376.984 415.565 375.494 418.432 373.789C421.277 372.095 424.005 370.19 427.099 368.97C428.405 368.456 428.292 366.482 426.757 366.435Z" fill="#EFCDBB"/>
</svg>
